<svg xmlns="http://www.w3.org/2000/svg" xlink="http://www.w3.org/1999/xlink" width="0" height="0" style="display:none;"><symbol viewBox="0 0 24 24" id="home-line"><path fill="none" d="M0 0h24v24H0z"/><path d="M21 20a1 1 0 0 1-1 1H4a1 1 0 0 1-1-1V9.49a1 1 0 0 1 .386-.79l8-6.222a1 1 0 0 1 1.228 0l8 6.222a1 1 0 0 1 .386.79V20zm-2-1V9.978l-7-5.444-7 5.444V19h14z"/></symbol><symbol viewBox="0 0 24 24" id="home-fill"><path fill="none" d="M0 0h24v24H0z"/><path d="M21 20a1 1 0 0 1-1 1H4a1 1 0 0 1-1-1V9.49a1 1 0 0 1 .386-.79l8-6.222a1 1 0 0 1 1.228 0l8 6.222a1 1 0 0 1 .386.79V20z"/></symbol><symbol viewBox="0 0 24 24" id="store-2-line"><path fill="none" d="M0 0h24v24H0z"/><path d="M21 13.242V20h1v2H2v-2h1v-6.758A4.496 4.496 0 0 1 1 9.5c0-.827.224-1.624.633-2.303L4.345 2.5a1 1 0 0 1 .866-.5H18.79a1 1 0 0 1 .866.5l2.702 4.682A4.496 4.496 0 0 1 21 13.242zm-2 .73a4.496 4.496 0 0 1-3.75-1.36A4.496 4.496 0 0 1 12 14.001a4.496 4.496 0 0 1-3.25-1.387A4.496 4.496 0 0 1 5 13.973V20h14v-6.027zM5.789 4L3.356 8.213a2.5 2.5 0 0 0 4.466 2.216c.335-.837 1.52-.837 1.856 0a2.5 2.5 0 0 0 4.644 0c.335-.837 1.52-.837 1.856 0a2.5 2.5 0 1 0 4.457-2.232L18.21 4H5.79z"/></symbol><symbol viewBox="0 0 24 24" id="store-2-fill"><path fill="none" d="M0 0h24v24H0z"/><path d="M22 20v2H2v-2h1v-6.758A4.496 4.496 0 0 1 1 9.5c0-.827.224-1.624.633-2.303L4.345 2.5a1 1 0 0 1 .866-.5H18.79a1 1 0 0 1 .866.5l2.702 4.682A4.496 4.496 0 0 1 21 13.242V20h1zM5.789 4L3.356 8.213a2.5 2.5 0 0 0 4.466 2.216c.335-.837 1.52-.837 1.856 0a2.5 2.5 0 0 0 4.644 0c.335-.837 1.52-.837 1.856 0a2.5 2.5 0 1 0 4.457-2.232L18.21 4H5.79z"/></symbol><symbol viewBox="0 0 24 24" id="building-line"><path fill="none" d="M0 0h24v24H0z"/><path d="M21 19h2v2H1v-2h2V4a1 1 0 0 1 1-1h10a1 1 0 0 1 1 1v15h4v-8h-2V9h3a1 1 0 0 1 1 1v9zM5 5v14h8V5H5zm2 6h4v2H7v-2zm0-4h4v2H7V7z"/></symbol><symbol viewBox="0 0 24 24" id="building-fill"><path fill="none" d="M0 0h24v24H0z"/><path d="M21 19h2v2H1v-2h2V4a1 1 0 0 1 1-1h10a1 1 0 0 1 1 1v15h2V9h3a1 1 0 0 1 1 1v9zM7 11v2h4v-2H7zm0-4v2h4V7H7z"/></symbol><symbol viewBox="0 0 24 24" id="mail-line"><path fill="none" d="M0 0h24v24H0z"/><path d="M3 3h18a1 1 0 0 1 1 1v16a1 1 0 0 1-1 1H3a1 1 0 0 1-1-1V4a1 1 0 0 1 1-1zm17 4.238l-7.928 7.1L4 7.216V19h16V7.238zM4.511 5l7.55 6.662L19.502 5H4.511z"/></symbol><symbol viewBox="0 0 24 24" id="mail-fill"><path fill="none" d="M0 0h24v24H0z"/><path d="M3 3h18a1 1 0 0 1 1 1v16a1 1 0 0 1-1 1H3a1 1 0 0 1-1-1V4a1 1 0 0 1 1-1zm9.06 8.683L5.648 6.238 4.353 7.762l7.72 6.555 7.581-6.56-1.308-1.513-6.285 5.439z"/></symbol><symbol viewBox="0 0 24 24" id="inbox-archive-line"><path fill="none" d="M0 0h24v24H0z"/><path d="M4 3h16l2 4v13a1 1 0 0 1-1 1H3a1 1 0 0 1-1-1V7.004L4 3zm16 6H4v10h16V9zm-.236-2l-1-2H5.237l-1 2h15.527zM13 14h3l-4 4-4-4h3v-4h2v4z"/></symbol><symbol viewBox="0 0 24 24" id="inbox-archive-fill"><path fill="none" d="M0 0h24v24H0z"/><path d="M4 3h16l2 4v13a1 1 0 0 1-1 1H3a1 1 0 0 1-1-1V7.004L4 3zm9 11v-4h-2v4H8l4 4 4-4h-3zm6.764-7l-1-2H5.237l-1 2h15.527z"/></symbol><symbol viewBox="0 0 24 24" id="bookmark-line"><path fill="none" d="M0 0h24v24H0z"/><path d="M5 2h14a1 1 0 0 1 1 1v19.143a.5.5 0 0 1-.766.424L12 18.03l-7.234 4.536A.5.5 0 0 1 4 22.143V3a1 1 0 0 1 1-1zm13 2H6v15.432l6-3.761 6 3.761V4z"/></symbol><symbol viewBox="0 0 24 24" id="bookmark-fill"><path fill="none" d="M0 0h24v24H0z"/><path d="M5 2h14a1 1 0 0 1 1 1v19.143a.5.5 0 0 1-.766.424L12 18.03l-7.234 4.536A.5.5 0 0 1 4 22.143V3a1 1 0 0 1 1-1z"/></symbol><symbol viewBox="0 0 24 24" id="customer-service-2-line"><path fill="none" d="M0 0h24v24H0z"/><path d="M19.938 8H21a2 2 0 0 1 2 2v4a2 2 0 0 1-2 2h-1.062A8.001 8.001 0 0 1 12 23v-2a6 6 0 0 0 6-6V9A6 6 0 1 0 6 9v7H3a2 2 0 0 1-2-2v-4a2 2 0 0 1 2-2h1.062a8.001 8.001 0 0 1 15.876 0zM3 10v4h1v-4H3zm17 0v4h1v-4h-1zM7.76 15.785l1.06-1.696A5.972 5.972 0 0 0 12 15a5.972 5.972 0 0 0 3.18-.911l1.06 1.696A7.963 7.963 0 0 1 12 17a7.963 7.963 0 0 1-4.24-1.215z"/></symbol><symbol viewBox="0 0 24 24" id="customer-service-2-fill"><path fill="none" d="M0 0h24v24H0z"/><path d="M21 8a2 2 0 0 1 2 2v4a2 2 0 0 1-2 2h-1.062A8.001 8.001 0 0 1 12 23v-2a6 6 0 0 0 6-6V9A6 6 0 1 0 6 9v7H3a2 2 0 0 1-2-2v-4a2 2 0 0 1 2-2h1.062a8.001 8.001 0 0 1 15.876 0H21zM7.76 15.785l1.06-1.696A5.972 5.972 0 0 0 12 15a5.972 5.972 0 0 0 3.18-.911l1.06 1.696A7.963 7.963 0 0 1 12 17a7.963 7.963 0 0 1-4.24-1.215z"/></symbol><symbol viewBox="0 0 24 24" id="slideshow-2-line"><path fill="none" d="M0 0h24v24H0z"/><path d="M13 17v3h5v2H6v-2h5v-3H4a1 1 0 0 1-1-1V4H2V2h20v2h-1v12a1 1 0 0 1-1 1h-7zm-8-2h14V4H5v11zm5-9l5 3.5-5 3.5V6z"/></symbol><symbol viewBox="0 0 24 24" id="slideshow-2-fill"><path fill="none" d="M0 0h24v24H0z"/><path d="M13 17v3h5v2H6v-2h5v-3H4a1 1 0 0 1-1-1V4H2V2h20v2h-1v12a1 1 0 0 1-1 1h-7zM10 6v7l5-3.5L10 6z"/></symbol><symbol viewBox="0 0 24 24" id="chat-2-line"><path fill="none" d="M0 0h24v24H0z"/><path d="M14.45 19L12 22.5 9.55 19H3a1 1 0 0 1-1-1V4a1 1 0 0 1 1-1h18a1 1 0 0 1 1 1v14a1 1 0 0 1-1 1h-6.55zm-1.041-2H20V5H4v12h6.591L12 19.012 13.409 17z"/></symbol><symbol viewBox="0 0 24 24" id="chat-2-fill"><path fill="none" d="M0 0h24v24H0z"/><path d="M14.45 19L12 22.5 9.55 19H3a1 1 0 0 1-1-1V4a1 1 0 0 1 1-1h18a1 1 0 0 1 1 1v14a1 1 0 0 1-1 1h-6.55z"/></symbol><symbol viewBox="0 0 24 24" id="discuss-line"><path fill="none" d="M0 0h24v24H0z"/><path d="M14 22.5L11.2 19H6a1 1 0 0 1-1-1V7.103a1 1 0 0 1 1-1h16a1 1 0 0 1 1 1V18a1 1 0 0 1-1 1h-5.2L14 22.5zm1.839-5.5H21V8.103H7V17H12.161L14 19.298 15.839 17zM2 2h17v2H3v11H1V3a1 1 0 0 1 1-1z"/></symbol><symbol viewBox="0 0 24 24" id="discuss-fill"><path fill="none" d="M0 0h24v24H0z"/><path d="M16.8 19L14 22.5 11.2 19H6a1 1 0 0 1-1-1V7.103a1 1 0 0 1 1-1h16a1 1 0 0 1 1 1V18a1 1 0 0 1-1 1h-5.2zM2 2h17v2H3v11H1V3a1 1 0 0 1 1-1z"/></symbol><symbol viewBox="0 0 24 24" id="pencil-line"><path fill="none" d="M0 0h24v24H0z"/><path d="M15.728 9.686l-1.414-1.414L5 17.586V19h1.414l9.314-9.314zm1.414-1.414l1.414-1.414-1.414-1.414-1.414 1.414 1.414 1.414zM7.242 21H3v-4.243L16.435 3.322a1 1 0 0 1 1.414 0l2.829 2.829a1 1 0 0 1 0 1.414L7.243 21z"/></symbol><symbol viewBox="0 0 24 24" id="pencil-fill"><path fill="none" d="M0 0h24v24H0z"/><path d="M12.9 6.858l4.242 4.243L7.242 21H3v-4.243l9.9-9.9zm1.414-1.414l2.121-2.122a1 1 0 0 1 1.414 0l2.829 2.829a1 1 0 0 1 0 1.414l-2.122 2.121-4.242-4.242z"/></symbol><symbol viewBox="0 0 24 24" id="layout-3-line"><path fill="none" d="M0 0h24v24H0z"/><path d="M4 21a1 1 0 0 1-1-1V4a1 1 0 0 1 1-1h16a1 1 0 0 1 1 1v16a1 1 0 0 1-1 1H4zm4-11H5v9h3v-9zm11 0h-9v9h9v-9zm0-5H5v3h14V5z"/></symbol><symbol viewBox="0 0 24 24" id="layout-3-fill"><path fill="none" d="M0 0h24v24H0z"/><path d="M8 10v11H4a1 1 0 0 1-1-1V10h5zm13 0v10a1 1 0 0 1-1 1H10V10h11zm-1-7a1 1 0 0 1 1 1v4H3V4a1 1 0 0 1 1-1h16z"/></symbol><symbol viewBox="0 0 24 24" id="bug-line"><path fill="none" d="M0 0h24v24H0z"/><path d="M13 19.9a5.002 5.002 0 0 0 4-4.9v-3a4.98 4.98 0 0 0-.415-2h-9.17A4.98 4.98 0 0 0 7 12v3a5.002 5.002 0 0 0 4 4.9V14h2v5.9zm-7.464-2.21A6.979 6.979 0 0 1 5 15H2v-2h3v-1c0-.643.087-1.265.249-1.856L3.036 8.866l1-1.732L6.056 8.3a7.01 7.01 0 0 1 .199-.3h11.49c.069.098.135.199.199.3l2.02-1.166 1 1.732-2.213 1.278c.162.59.249 1.213.249 1.856v1h3v2h-3c0 .953-.19 1.862-.536 2.69l2.5 1.444-1 1.732-2.526-1.458A6.986 6.986 0 0 1 12 22a6.986 6.986 0 0 1-5.438-2.592l-2.526 1.458-1-1.732 2.5-1.443zM8 6a4 4 0 1 1 8 0H8z"/></symbol><symbol viewBox="0 0 24 24" id="bug-fill"><path fill="none" d="M0 0h24v24H0z"/><path d="M6.056 8.3a7.01 7.01 0 0 1 .199-.3h11.49c.069.098.135.199.199.3l2.02-1.166 1 1.732-2.213 1.278c.162.59.249 1.213.249 1.856v1h3v2h-3c0 .953-.19 1.862-.536 2.69l2.5 1.444-1 1.732-2.526-1.458A6.992 6.992 0 0 1 13 21.929V14h-2v7.93a6.992 6.992 0 0 1-4.438-2.522l-2.526 1.458-1-1.732 2.5-1.443A6.979 6.979 0 0 1 5 15H2v-2h3v-1c0-.643.087-1.265.249-1.856L3.036 8.866l1-1.732L6.056 8.3zM8 6a4 4 0 1 1 8 0H8z"/></symbol><symbol viewBox="0 0 24 24" id="code-s-slash-line"><path fill="none" d="M0 0h24v24H0z"/><path d="M24 12l-5.657 5.657-1.414-1.414L21.172 12l-4.243-4.243 1.414-1.414L24 12zM2.828 12l4.243 4.243-1.414 1.414L0 12l5.657-5.657L7.07 7.757 2.828 12zm6.96 9H7.66l6.552-18h2.128L9.788 21z"/></symbol><symbol viewBox="0 0 24 24" id="code-s-slash-fill"><path fill="none" d="M0 0h24v24H0z"/><path d="M24 12l-5.657 5.657-1.414-1.414L21.172 12l-4.243-4.243 1.414-1.414L24 12zM2.828 12l4.243 4.243-1.414 1.414L0 12l5.657-5.657L7.07 7.757 2.828 12zm6.96 9H7.66l6.552-18h2.128L9.788 21z"/></symbol><symbol viewBox="0 0 24 24" id="html5-line"><path fill="none" d="M0 0h24v24H0z"/><path d="M12 18.178l-4.62-1.256-.328-3.544h2.27l.158 1.844 2.52.667 2.52-.667.26-2.866H6.96l-.635-6.678h11.35l-.227 2.21H8.822l.204 2.256h8.217l-.624 6.778L12 18.178zM3 2h18l-1.623 18L12 22l-7.377-2L3 2zm2.188 2L6.49 18.434 12 19.928l5.51-1.494L18.812 4H5.188z"/></symbol><symbol viewBox="0 0 24 24" id="html5-fill"><path fill="none" d="M0 0h24v24H0z"/><path d="M12 18.178l4.62-1.256.623-6.778H9.026L8.822 7.89h8.626l.227-2.211H6.325l.636 6.678h7.82l-.261 2.866-2.52.667-2.52-.667-.158-1.844h-2.27l.329 3.544L12 18.178zM3 2h18l-1.623 18L12 22l-7.377-2L3 2z"/></symbol><symbol viewBox="0 0 24 24" id="computer-line"><path fill="none" d="M0 0h24v24H0z"/><path d="M4 16h16V5H4v11zm9 2v2h4v2H7v-2h4v-2H2.992A.998.998 0 0 1 2 16.993V4.007C2 3.451 2.455 3 2.992 3h18.016c.548 0 .992.449.992 1.007v12.986c0 .556-.455 1.007-.992 1.007H13z"/></symbol><symbol viewBox="0 0 24 24" id="computer-fill"><path fill="none" d="M0 0h24v24H0z"/><path d="M13 18v2h4v2H7v-2h4v-2H2.992A.998.998 0 0 1 2 16.993V4.007C2 3.451 2.455 3 2.992 3h18.016c.548 0 .992.449.992 1.007v12.986c0 .556-.455 1.007-.992 1.007H13z"/></symbol><symbol viewBox="0 0 24 24" id="file-line"><path fill="none" d="M0 0h24v24H0z"/><path d="M9 2.003V2h10.998C20.55 2 21 2.455 21 2.992v18.016a.993.993 0 0 1-.993.992H3.993A1 1 0 0 1 3 20.993V8l6-5.997zM5.83 8H9V4.83L5.83 8zM11 4v5a1 1 0 0 1-1 1H5v10h14V4h-8z"/></symbol><symbol viewBox="0 0 24 24" id="file-fill"><path fill="none" d="M0 0h24v24H0z"/><path d="M3 8l6.003-6h10.995C20.55 2 21 2.455 21 2.992v18.016a.993.993 0 0 1-.993.992H3.993A1 1 0 0 1 3 20.993V8zm7-4.5L4.5 9H10V3.5z"/></symbol><symbol viewBox="0 0 24 24" id="file-copy-line"><path fill="none" d="M0 0h24v24H0z"/><path d="M7 6V3a1 1 0 0 1 1-1h12a1 1 0 0 1 1 1v14a1 1 0 0 1-1 1h-3v3c0 .552-.45 1-1.007 1H4.007A1.001 1.001 0 0 1 3 21l.003-14c0-.552.45-1 1.007-1H7zM5.003 8L5 20h10V8H5.003zM9 6h8v10h2V4H9v2z"/></symbol><symbol viewBox="0 0 24 24" id="file-copy-fill"><path fill="none" d="M0 0h24v24H0z"/><path d="M7 6V3a1 1 0 0 1 1-1h12a1 1 0 0 1 1 1v14a1 1 0 0 1-1 1h-3v3c0 .552-.45 1-1.007 1H4.007A1.001 1.001 0 0 1 3 21l.003-14c0-.552.45-1 1.007-1H7zm2 0h8v10h2V4H9v2z"/></symbol><symbol viewBox="0 0 24 24" id="wechat-line"><path fill="none" d="M0 0h24v24H0z"/><path d="M10 14.676v-.062c0-2.508 2.016-4.618 4.753-5.233C14.389 7.079 11.959 5.2 8.9 5.2 5.58 5.2 3 7.413 3 9.98c0 .969.36 1.9 1.04 2.698.032.038.083.094.152.165a3.568 3.568 0 0 1 1.002 2.238 3.612 3.612 0 0 1 2.363-.442c.166.026.302.046.405.06A7.254 7.254 0 0 0 10 14.675zm.457 1.951a9.209 9.209 0 0 1-2.753.055 19.056 19.056 0 0 1-.454-.067 1.612 1.612 0 0 0-1.08.212l-1.904 1.148a.806.806 0 0 1-.49.117.791.791 0 0 1-.729-.851l.15-1.781a1.565 1.565 0 0 0-.439-1.223 5.537 5.537 0 0 1-.241-.262C1.563 12.855 1 11.473 1 9.979 1 6.235 4.537 3.2 8.9 3.2c4.06 0 7.403 2.627 7.85 6.008 3.372.153 6.05 2.515 6.05 5.406 0 1.193-.456 2.296-1.229 3.19-.051.06-.116.13-.195.21a1.24 1.24 0 0 0-.356.976l.121 1.423a.635.635 0 0 1-.59.68.66.66 0 0 1-.397-.094l-1.543-.917a1.322 1.322 0 0 0-.874-.169c-.147.023-.27.04-.368.053-.316.04-.64.062-.969.062-2.694 0-4.998-1.408-5.943-3.401zm6.977 1.31a3.325 3.325 0 0 1 1.676.174 3.25 3.25 0 0 1 .841-1.502c.05-.05.087-.09.106-.112.489-.565.743-1.213.743-1.883 0-1.804-1.903-3.414-4.4-3.414-2.497 0-4.4 1.61-4.4 3.414s1.903 3.414 4.4 3.414c.241 0 .48-.016.714-.046.08-.01.188-.025.32-.046z"/></symbol><symbol viewBox="0 0 24 24" id="wechat-fill"><path fill="none" d="M0 0h24v24H0z"/><path d="M18.574 13.711a.91.91 0 0 0 .898-.898c0-.498-.399-.898-.898-.898s-.898.4-.898.898c0 .5.4.898.898.898zm-4.425 0a.91.91 0 0 0 .898-.898c0-.498-.4-.898-.898-.898-.5 0-.898.4-.898.898 0 .5.399.898.898.898zm6.567 5.04a.347.347 0 0 0-.172.37c0 .048 0 .097.025.147.098.417.294 1.081.294 1.106 0 .073.025.122.025.172a.22.22 0 0 1-.221.22c-.05 0-.074-.024-.123-.048l-1.449-.836a.799.799 0 0 0-.344-.098c-.073 0-.147 0-.196.024-.688.197-1.4.295-2.161.295-3.66 0-6.607-2.457-6.607-5.505 0-3.047 2.947-5.505 6.607-5.505 3.659 0 6.606 2.458 6.606 5.505 0 1.647-.884 3.146-2.284 4.154zM16.673 8.099a9.105 9.105 0 0 0-.28-.005c-4.174 0-7.606 2.86-7.606 6.505 0 .554.08 1.09.228 1.6h-.089a9.963 9.963 0 0 1-2.584-.368c-.074-.025-.148-.025-.222-.025a.832.832 0 0 0-.418.123l-1.748 1.005c-.05.025-.099.05-.148.05a.273.273 0 0 1-.27-.27c0-.074.024-.123.049-.197.024-.024.246-.834.369-1.324 0-.05.024-.123.024-.172a.556.556 0 0 0-.221-.442C2.058 13.376 1 11.586 1 9.598 1 5.945 4.57 3 8.95 3c3.765 0 6.93 2.169 7.723 5.098zm-5.154.418c.573 0 1.026-.477 1.026-1.026 0-.573-.453-1.026-1.026-1.026s-1.026.453-1.026 1.026.453 1.026 1.026 1.026zm-5.26 0c.573 0 1.027-.477 1.027-1.026 0-.573-.454-1.026-1.027-1.026-.572 0-1.026.453-1.026 1.026s.454 1.026 1.026 1.026z"/></symbol><symbol viewBox="0 0 24 24" id="qq-line"><path fill="none" d="M0 0h24v24H0z"/><path d="M17.535 12.514l-.696-1.796c0-.021.01-.375.01-.558C16.848 7.088 15.446 4 12 4c-3.446 0-4.848 3.088-4.848 6.16 0 .183.009.537.01.558l-.696 1.796c-.19.515-.38 1.05-.517 1.51-.657 2.189-.444 3.095-.282 3.115.348.043 1.354-1.648 1.354-1.648 0 .98.488 2.258 1.542 3.18-.394.127-.878.32-1.188.557-.28.214-.245.431-.194.52.22.385 3.79.245 4.82.125 1.03.12 4.599.26 4.82-.126.05-.088.085-.305-.194-.519-.311-.237-.795-.43-1.19-.556 1.055-.923 1.542-2.202 1.542-3.181 0 0 1.007 1.691 1.355 1.648.162-.02.378-.928-.283-3.116-.14-.463-.325-.994-.516-1.509zm1.021 8.227c-.373.652-.833.892-1.438 1.057-.24.065-.498.108-.794.138-.44.045-.986.065-1.613.064a33.23 33.23 0 0 1-2.71-.116c-.692.065-1.785.114-2.71.116a16.07 16.07 0 0 1-1.614-.064 4.928 4.928 0 0 1-.793-.138c-.605-.164-1.065-.405-1.44-1.059a2.274 2.274 0 0 1-.239-1.652c-.592-.132-1.001-.483-1.279-.911a2.43 2.43 0 0 1-.309-.71 4.028 4.028 0 0 1-.116-1.106c.013-.785.187-1.762.532-2.912.14-.466.327-1.008.568-1.655l.553-1.43a15.496 15.496 0 0 1-.002-.203C5.152 5.605 7.588 2 12 2c4.413 0 6.848 3.605 6.848 8.16l-.001.203.553 1.43.01.026c.225.606.413 1.153.556 1.626.348 1.15.522 2.129.535 2.916.007.407-.03.776-.118 1.108-.066.246-.161.48-.31.708-.276.427-.684.776-1.277.91.13.554.055 1.14-.24 1.654z"/></symbol><symbol viewBox="0 0 24 24" id="qq-fill"><path fill="none" d="M0 0h24v24H0z"/><path d="M19.913 14.529a31.977 31.977 0 0 0-.675-1.886l-.91-2.246c0-.026.012-.468.012-.696C18.34 5.86 16.507 2 12 2 7.493 2 5.66 5.86 5.66 9.7c0 .229.011.671.012.697l-.91 2.246c-.248.643-.495 1.312-.675 1.886-.86 2.737-.581 3.87-.369 3.895.455.054 1.771-2.06 1.771-2.06 0 1.224.637 2.822 2.016 3.976-.515.157-1.147.399-1.554.695-.365.267-.319.54-.253.65.289.481 4.955.307 6.303.157 1.347.15 6.014.324 6.302-.158.066-.11.112-.382-.253-.649-.407-.296-1.039-.538-1.555-.696 1.379-1.153 2.016-2.751 2.016-3.976 0 0 1.316 2.115 1.771 2.06.212-.025.49-1.157-.37-3.894"/></symbol><symbol viewBox="0 0 24 24" id="vuejs-line"><path fill="none" d="M0 0h24v24H0z"/><path d="M3.316 3L12 18l8.684-15H23L12 22 1 3h2.316zm4.342 0L12 10.5 16.342 3h2.316L12 14.5 5.342 3h2.316z"/></symbol><symbol viewBox="0 0 24 24" id="vuejs-fill"><path fill="none" d="M0 0h24v24H0z"/><path d="M1 3h4l7 12 7-12h4L12 22 1 3zm8.667 0L12 7l2.333-4h4.035L12 14 5.632 3h4.035z"/></symbol><symbol viewBox="0 0 24 24" id="weibo-fill"><path fill="none" d="M0 0h24v24H0z"/><path d="M17.525 11.378c1.263.392 2.669 1.336 2.669 3.004 0 2.763-3.98 6.239-9.964 6.239-4.565 0-9.23-2.213-9.23-5.852 0-1.902 1.204-4.102 3.277-6.177 2.773-2.77 6.004-4.033 7.219-2.816.537.537.588 1.464.244 2.572-.178.557.525.25.525.25 2.24-.938 4.196-.994 4.909.027.38.543.343 1.306-.008 2.19-.163.407.048.471.36.563zm-7.282 7.939c3.641-.362 6.401-2.592 6.167-4.983-.237-2.391-3.382-4.038-7.023-3.677-3.64.36-6.403 2.59-6.167 4.98.237 2.394 3.382 4.039 7.023 3.68zM6.16 14.438c.754-1.527 2.712-2.39 4.446-1.94 1.793.463 2.707 2.154 1.976 3.8-.744 1.682-2.882 2.578-4.695 1.993-1.752-.566-2.493-2.294-1.727-3.853zm1.446 2.587c.568.257 1.325.013 1.676-.55.346-.568.163-1.217-.407-1.459-.563-.237-1.291.008-1.64.553-.354.547-.189 1.202.371 1.456zm2.206-1.808c.219.092.501-.012.628-.231.123-.22.044-.466-.178-.548-.216-.084-.486.018-.613.232-.123.214-.054.458.163.547zM19.873 9.5a.725.725 0 1 1-1.378-.451 1.38 1.38 0 0 0-.288-1.357 1.395 1.395 0 0 0-1.321-.425.723.723 0 1 1-.303-1.416 2.836 2.836 0 0 1 3.29 3.649zm-3.916-6.575A5.831 5.831 0 0 1 21.5 4.72a5.836 5.836 0 0 1 1.22 5.704.838.838 0 0 1-1.06.54.844.844 0 0 1-.542-1.062 4.143 4.143 0 0 0-4.807-5.327.845.845 0 0 1-.354-1.65z"/></symbol><symbol viewBox="0 0 24 24" id="map-pin-line"><path fill="none" d="M0 0h24v24H0z"/><path d="M12 20.9l4.95-4.95a7 7 0 1 0-9.9 0L12 20.9zm0 2.828l-6.364-6.364a9 9 0 1 1 12.728 0L12 23.728zM12 13a2 2 0 1 0 0-4 2 2 0 0 0 0 4zm0 2a4 4 0 1 1 0-8 4 4 0 0 1 0 8z"/></symbol><symbol viewBox="0 0 24 24" id="map-pin-fill"><path fill="none" d="M0 0h24v24H0z"/><path d="M18.364 17.364L12 23.728l-6.364-6.364a9 9 0 1 1 12.728 0zM12 15a4 4 0 1 0 0-8 4 4 0 0 0 0 8zm0-2a2 2 0 1 1 0-4 2 2 0 0 1 0 4z"/></symbol><symbol viewBox="0 0 24 24" id="image-line"><path fill="none" d="M0 0h24v24H0z"/><path d="M4.828 21l-.02.02-.021-.02H2.992A.993.993 0 0 1 2 20.007V3.993A1 1 0 0 1 2.992 3h18.016c.548 0 .992.445.992.993v16.014a1 1 0 0 1-.992.993H4.828zM20 15V5H4v14L14 9l6 6zm0 2.828l-6-6L6.828 19H20v-1.172zM8 11a2 2 0 1 1 0-4 2 2 0 0 1 0 4z"/></symbol><symbol viewBox="0 0 24 24" id="image-fill"><path fill="none" d="M0 0h24v24H0z"/><path d="M20 5H4v14l9.292-9.294a1 1 0 0 1 1.414 0L20 15.01V5zM2 3.993A1 1 0 0 1 2.992 3h18.016c.548 0 .992.445.992.993v16.014a1 1 0 0 1-.992.993H2.992A.993.993 0 0 1 2 20.007V3.993zM8 11a2 2 0 1 1 0-4 2 2 0 0 1 0 4z"/></symbol><symbol viewBox="0 0 24 24" id="more-fill"><path fill="none" d="M0 0h24v24H0z"/><path d="M5 10c-1.1 0-2 .9-2 2s.9 2 2 2 2-.9 2-2-.9-2-2-2zm14 0c-1.1 0-2 .9-2 2s.9 2 2 2 2-.9 2-2-.9-2-2-2zm-7 0c-1.1 0-2 .9-2 2s.9 2 2 2 2-.9 2-2-.9-2-2-2z"/></symbol><symbol viewBox="0 0 24 24" id="more-2-fill"><path fill="none" d="M0 0h24v24H0z"/><path d="M12 3c-1.1 0-2 .9-2 2s.9 2 2 2 2-.9 2-2-.9-2-2-2zm0 14c-1.1 0-2 .9-2 2s.9 2 2 2 2-.9 2-2-.9-2-2-2zm0-7c-1.1 0-2 .9-2 2s.9 2 2 2 2-.9 2-2-.9-2-2-2z"/></symbol><symbol viewBox="0 0 24 24" id="heart-line"><path fill="none" d="M0 0h24v24H0z"/><path d="M12 22l-9.192-9.192c-2.18-2.568-2.066-6.42.353-8.84A6.5 6.5 0 0 1 12 3.64a6.5 6.5 0 0 1 9.179 9.154L12 22zm7.662-10.509a4.5 4.5 0 0 0-6.355-6.337L12 6.282l-1.307-1.128a4.5 4.5 0 0 0-6.355 6.337l.114.132L12 19.172l7.548-7.549.114-.132z"/></symbol><symbol viewBox="0 0 24 24" id="heart-fill"><path fill="none" d="M0 0h24v24H0z"/><path d="M21.179 12.794l.013.014L12 22l-9.192-9.192.013-.014A6.5 6.5 0 0 1 12 3.64a6.5 6.5 0 0 1 9.179 9.154z"/></symbol><symbol viewBox="0 0 24 24" id="error-warning-line"><path fill="none" d="M0 0h24v24H0z"/><path d="M12 22C6.477 22 2 17.523 2 12S6.477 2 12 2s10 4.477 10 10-4.477 10-10 10zm0-2a8 8 0 1 0 0-16 8 8 0 0 0 0 16zm-1-5h2v2h-2v-2zm0-8h2v6h-2V7z"/></symbol><symbol viewBox="0 0 24 24" id="error-warning-fill"><path fill="none" d="M0 0h24v24H0z"/><path d="M12 22C6.477 22 2 17.523 2 12S6.477 2 12 2s10 4.477 10 10-4.477 10-10 10zm-1-7v2h2v-2h-2zm0-8v6h2V7h-2z"/></symbol><symbol viewBox="0 0 24 24" id="settings-3-line"><path fill="none" d="M0 0h24v24H0z"/><path d="M3.34 17a10.018 10.018 0 0 1-.978-2.326 3 3 0 0 0 .002-5.347A9.99 9.99 0 0 1 4.865 4.99a3 3 0 0 0 4.631-2.674 9.99 9.99 0 0 1 5.007.002 3 3 0 0 0 4.632 2.672c.579.59 1.093 1.261 1.525 2.01.433.749.757 1.53.978 2.326a3 3 0 0 0-.002 5.347 9.99 9.99 0 0 1-2.501 4.337 3 3 0 0 0-4.631 2.674 9.99 9.99 0 0 1-5.007-.002 3 3 0 0 0-4.632-2.672A10.018 10.018 0 0 1 3.34 17zm5.66.196a4.993 4.993 0 0 1 2.25 2.77c.499.047 1 .048 1.499.001A4.993 4.993 0 0 1 15 17.197a4.993 4.993 0 0 1 3.525-.565c.29-.408.54-.843.748-1.298A4.993 4.993 0 0 1 18 12c0-1.26.47-2.437 1.273-3.334a8.126 8.126 0 0 0-.75-1.298A4.993 4.993 0 0 1 15 6.804a4.993 4.993 0 0 1-2.25-2.77c-.499-.047-1-.048-1.499-.001A4.993 4.993 0 0 1 9 6.803a4.993 4.993 0 0 1-3.525.565 7.99 7.99 0 0 0-.748 1.298A4.993 4.993 0 0 1 6 12c0 1.26-.47 2.437-1.273 3.334a8.126 8.126 0 0 0 .75 1.298A4.993 4.993 0 0 1 9 17.196zM12 15a3 3 0 1 1 0-6 3 3 0 0 1 0 6zm0-2a1 1 0 1 0 0-2 1 1 0 0 0 0 2z"/></symbol><symbol viewBox="0 0 24 24" id="settings-3-fill"><path fill="none" d="M0 0h24v24H0z"/><path d="M9.954 2.21a9.99 9.99 0 0 1 4.091-.002A3.993 3.993 0 0 0 16 5.07a3.993 3.993 0 0 0 3.457.261A9.99 9.99 0 0 1 21.5 8.876 3.993 3.993 0 0 0 20 12c0 1.264.586 2.391 1.502 3.124a10.043 10.043 0 0 1-2.046 3.543 3.993 3.993 0 0 0-3.456.261 3.993 3.993 0 0 0-1.954 2.86 9.99 9.99 0 0 1-4.091.004A3.993 3.993 0 0 0 8 18.927a3.993 3.993 0 0 0-3.457-.26A9.99 9.99 0 0 1 2.5 15.121 3.993 3.993 0 0 0 4 11.999a3.993 3.993 0 0 0-1.502-3.124 10.043 10.043 0 0 1 2.046-3.543A3.993 3.993 0 0 0 8 5.071a3.993 3.993 0 0 0 1.954-2.86zM12 15a3 3 0 1 0 0-6 3 3 0 0 0 0 6z"/></symbol><symbol viewBox="0 0 24 24" id="star-line"><path fill="none" d="M0 0h24v24H0z"/><path d="M12 18.26l-7.053 3.948 1.575-7.928L.587 8.792l8.027-.952L12 .5l3.386 7.34 8.027.952-5.935 5.488 1.575 7.928L12 18.26zm0-2.292l4.247 2.377-.949-4.773 3.573-3.305-4.833-.573L12 5.275l-2.038 4.42-4.833.572 3.573 3.305-.949 4.773L12 15.968z"/></symbol><symbol viewBox="0 0 24 24" id="star-fill"><path fill="none" d="M0 0h24v24H0z"/><path d="M12 18.26l-7.053 3.948 1.575-7.928L.587 8.792l8.027-.952L12 .5l3.386 7.34 8.027.952-5.935 5.488 1.575 7.928z"/></symbol><symbol viewBox="0 0 24 24" id="question-line"><path fill="none" d="M0 0h24v24H0z"/><path d="M12 22C6.477 22 2 17.523 2 12S6.477 2 12 2s10 4.477 10 10-4.477 10-10 10zm0-2a8 8 0 1 0 0-16 8 8 0 0 0 0 16zm-1-5h2v2h-2v-2zm2-1.645V14h-2v-1.5a1 1 0 0 1 1-1 1.5 1.5 0 1 0-1.471-1.794l-1.962-.393A3.501 3.501 0 1 1 13 13.355z"/></symbol><symbol viewBox="0 0 24 24" id="question-fill"><path fill="none" d="M0 0h24v24H0z"/><path d="M12 22C6.477 22 2 17.523 2 12S6.477 2 12 2s10 4.477 10 10-4.477 10-10 10zm-1-7v2h2v-2h-2zm2-1.645A3.502 3.502 0 0 0 12 6.5a3.501 3.501 0 0 0-3.433 2.813l1.962.393A1.5 1.5 0 1 1 12 11.5a1 1 0 0 0-1 1V14h2v-.645z"/></symbol><symbol viewBox="0 0 24 24" id="checkbox-circle-line"><path fill="none" d="M0 0h24v24H0z"/><path d="M12 22C6.477 22 2 17.523 2 12S6.477 2 12 2s10 4.477 10 10-4.477 10-10 10zm0-2a8 8 0 1 0 0-16 8 8 0 0 0 0 16zm-.997-4L6.76 11.757l1.414-1.414 2.829 2.829 5.656-5.657 1.415 1.414L11.003 16z"/></symbol><symbol viewBox="0 0 24 24" id="checkbox-circle-fill"><path fill="none" d="M0 0h24v24H0z"/><path d="M12 22C6.477 22 2 17.523 2 12S6.477 2 12 2s10 4.477 10 10-4.477 10-10 10zm-.997-6l7.07-7.071-1.414-1.414-5.656 5.657-2.829-2.829-1.414 1.414L11.003 16z"/></symbol><symbol viewBox="0 0 24 24" id="close-circle-line"><path fill="none" d="M0 0h24v24H0z"/><path d="M12 22C6.477 22 2 17.523 2 12S6.477 2 12 2s10 4.477 10 10-4.477 10-10 10zm0-2a8 8 0 1 0 0-16 8 8 0 0 0 0 16zm0-9.414l2.828-2.829 1.415 1.415L13.414 12l2.829 2.828-1.415 1.415L12 13.414l-2.828 2.829-1.415-1.415L10.586 12 7.757 9.172l1.415-1.415L12 10.586z"/></symbol><symbol viewBox="0 0 24 24" id="close-circle-fill"><path fill="none" d="M0 0h24v24H0z"/><path d="M12 22C6.477 22 2 17.523 2 12S6.477 2 12 2s10 4.477 10 10-4.477 10-10 10zm0-11.414L9.172 7.757 7.757 9.172 10.586 12l-2.829 2.828 1.415 1.415L12 13.414l2.828 2.829 1.415-1.415L13.414 12l2.829-2.828-1.415-1.415L12 10.586z"/></symbol><symbol viewBox="0 0 24 24" id="add-circle-line"><path fill="none" d="M0 0h24v24H0z"/><path d="M11 11V7h2v4h4v2h-4v4h-2v-4H7v-2h4zm1 11C6.477 22 2 17.523 2 12S6.477 2 12 2s10 4.477 10 10-4.477 10-10 10zm0-2a8 8 0 1 0 0-16 8 8 0 0 0 0 16z"/></symbol><symbol viewBox="0 0 24 24" id="add-circle-fill"><path fill="none" d="M0 0h24v24H0z"/><path d="M12 22C6.477 22 2 17.523 2 12S6.477 2 12 2s10 4.477 10 10-4.477 10-10 10zm-1-11H7v2h4v4h2v-4h4v-2h-4V7h-2v4z"/></symbol><symbol viewBox="0 0 24 24" id="indeterminate-circle-line"><path fill="none" d="M0 0h24v24H0z"/><path d="M12 22C6.477 22 2 17.523 2 12S6.477 2 12 2s10 4.477 10 10-4.477 10-10 10zm0-2a8 8 0 1 0 0-16 8 8 0 0 0 0 16zm-5-9h10v2H7v-2z"/></symbol><symbol viewBox="0 0 24 24" id="indeterminate-circle-fill"><path fill="none" d="M0 0h24v24H0z"/><path d="M12 22C6.477 22 2 17.523 2 12S6.477 2 12 2s10 4.477 10 10-4.477 10-10 10zM7 11v2h10v-2H7z"/></symbol><symbol viewBox="0 0 24 24" id="check-line"><path fill="none" d="M0 0h24v24H0z"/><path d="M10 15.172l9.192-9.193 1.415 1.414L10 18l-6.364-6.364 1.414-1.414z"/></symbol><symbol viewBox="0 0 24 24" id="close-line"><path fill="none" d="M0 0h24v24H0z"/><path d="M12 10.586l4.95-4.95 1.414 1.414-4.95 4.95 4.95 4.95-1.414 1.414-4.95-4.95-4.95 4.95-1.414-1.414 4.95-4.95-4.95-4.95L7.05 5.636z"/></symbol><symbol viewBox="0 0 24 24" id="upload-line"><path fill="none" d="M0 0h24v24H0z"/><path d="M3 19h18v2H3v-2zM13 5.828V17h-2V5.828L4.929 11.9l-1.414-1.414L12 2l8.485 8.485-1.414 1.414L13 5.83z"/></symbol><symbol viewBox="0 0 24 24" id="download-line"><path fill="none" d="M0 0h24v24H0z"/><path d="M3 19h18v2H3v-2zm10-5.828L19.071 7.1l1.414 1.414L12 17 3.515 8.515 4.929 7.1 11 13.17V2h2v11.172z"/></symbol><symbol viewBox="0 0 24 24" id="arrow-up-s-line"><path fill="none" d="M0 0h24v24H0z"/><path d="M12 10.828l-4.95 4.95-1.414-1.414L12 8l6.364 6.364-1.414 1.414z"/></symbol><symbol viewBox="0 0 24 24" id="arrow-down-s-line"><path fill="none" d="M0 0h24v24H0z"/><path d="M12 13.172l4.95-4.95 1.414 1.414L12 16 5.636 9.636 7.05 8.222z"/></symbol><symbol viewBox="0 0 24 24" id="arrow-right-s-line"><path fill="none" d="M0 0h24v24H0z"/><path d="M13.172 12l-4.95-4.95 1.414-1.414L16 12l-6.364 6.364-1.414-1.414z"/></symbol><symbol viewBox="0 0 24 24" id="arrow-left-s-line"><path fill="none" d="M0 0h24v24H0z"/><path d="M10.828 12l4.95 4.95-1.414 1.414L8 12l6.364-6.364 1.414 1.414z"/></symbol><symbol viewBox="0 0 24 24" id="search-line"><path fill="none" d="M0 0h24v24H0z"/><path d="M18.031 16.617l4.283 4.282-1.415 1.415-4.282-4.283A8.96 8.96 0 0 1 11 20c-4.968 0-9-4.032-9-9s4.032-9 9-9 9 4.032 9 9a8.96 8.96 0 0 1-1.969 5.617zm-2.006-.742A6.977 6.977 0 0 0 18 11c0-3.868-3.133-7-7-7-3.868 0-7 3.132-7 7 0 3.867 3.132 7 7 7a6.977 6.977 0 0 0 4.875-1.975l.15-.15z"/></symbol><symbol viewBox="0 0 24 24" id="loader-fill"><path fill="none" d="M0 0h24v24H0z"/><path d="M12 2a1 1 0 0 1 1 1v3a1 1 0 0 1-2 0V3a1 1 0 0 1 1-1zm0 15a1 1 0 0 1 1 1v3a1 1 0 0 1-2 0v-3a1 1 0 0 1 1-1zm8.66-10a1 1 0 0 1-.366 1.366l-2.598 1.5a1 1 0 1 1-1-1.732l2.598-1.5A1 1 0 0 1 20.66 7zM7.67 14.5a1 1 0 0 1-.366 1.366l-2.598 1.5a1 1 0 1 1-1-1.732l2.598-1.5a1 1 0 0 1 1.366.366zM20.66 17a1 1 0 0 1-1.366.366l-2.598-1.5a1 1 0 0 1 1-1.732l2.598 1.5A1 1 0 0 1 20.66 17zM7.67 9.5a1 1 0 0 1-1.366.366l-2.598-1.5a1 1 0 1 1 1-1.732l2.598 1.5A1 1 0 0 1 7.67 9.5z"/></symbol><symbol viewBox="0 0 24 24" id="loader-2-fill"><path fill="none" d="M0 0h24v24H0z"/><path d="M12 2a1 1 0 0 1 1 1v3a1 1 0 0 1-2 0V3a1 1 0 0 1 1-1zm0 15a1 1 0 0 1 1 1v3a1 1 0 0 1-2 0v-3a1 1 0 0 1 1-1zm10-5a1 1 0 0 1-1 1h-3a1 1 0 0 1 0-2h3a1 1 0 0 1 1 1zM7 12a1 1 0 0 1-1 1H3a1 1 0 0 1 0-2h3a1 1 0 0 1 1 1zm12.071 7.071a1 1 0 0 1-1.414 0l-2.121-2.121a1 1 0 0 1 1.414-1.414l2.121 2.12a1 1 0 0 1 0 1.415zM8.464 8.464a1 1 0 0 1-1.414 0L4.93 6.344a1 1 0 0 1 1.414-1.415L8.464 7.05a1 1 0 0 1 0 1.414zM4.93 19.071a1 1 0 0 1 0-1.414l2.121-2.121a1 1 0 1 1 1.414 1.414l-2.12 2.121a1 1 0 0 1-1.415 0zM15.536 8.464a1 1 0 0 1 0-1.414l2.12-2.121a1 1 0 0 1 1.415 1.414L16.95 8.464a1 1 0 0 1-1.414 0z"/></symbol><symbol viewBox="0 0 24 24" id="loader-3-fill"><path fill="none" d="M0 0h24v24H0z"/><path d="M3.055 13H5.07a7.002 7.002 0 0 0 13.858 0h2.016a9.001 9.001 0 0 1-17.89 0zm0-2a9.001 9.001 0 0 1 17.89 0H18.93a7.002 7.002 0 0 0-13.858 0H3.055z"/></symbol><symbol viewBox="0 0 24 24" id="loader-4-line"><path fill="none" d="M0 0h24v24H0z"/><path d="M18.364 5.636L16.95 7.05A7 7 0 1 0 19 12h2a9 9 0 1 1-2.636-6.364z"/></symbol><symbol viewBox="0 0 24 24" id="loader-5-line"><path fill="none" d="M0 0h24v24H0z"/><path d="M12 3a9 9 0 0 1 9 9h-2a7 7 0 0 0-7-7V3z"/></symbol><symbol viewBox="0 0 24 24" id="fingerprint-line"><path fill="none" d="M0 0h24v24H0z"/><path d="M17 13v1c0 2.77-.664 5.445-1.915 7.846l-.227.42-1.747-.974c1.16-2.08 1.81-4.41 1.882-6.836L15 14v-1h2zm-6-3h2v4l-.005.379a12.941 12.941 0 0 1-2.691 7.549l-.231.29-1.55-1.264a10.944 10.944 0 0 0 2.471-6.588L11 14v-4zm1-4a5 5 0 0 1 5 5h-2a3 3 0 0 0-6 0v3c0 2.235-.82 4.344-2.271 5.977l-.212.23-1.448-1.38a6.969 6.969 0 0 0 1.925-4.524L7 14v-3a5 5 0 0 1 5-5zm0-4a9 9 0 0 1 9 9v3c0 1.698-.202 3.37-.597 4.99l-.139.539-1.93-.526c.392-1.437.613-2.922.658-4.435L19 14v-3A7 7 0 0 0 7.808 5.394L6.383 3.968A8.962 8.962 0 0 1 12 2zM4.968 5.383l1.426 1.425a6.966 6.966 0 0 0-1.39 3.951L5 11 5.004 13c0 1.12-.264 2.203-.762 3.177l-.156.29-1.737-.992c.38-.665.602-1.407.646-2.183L3.004 13v-2a8.94 8.94 0 0 1 1.964-5.617z"/></symbol><symbol viewBox="0 0 24 24" id="eye-line"><path fill="none" d="M0 0h24v24H0z"/><path d="M12 3c5.392 0 9.878 3.88 10.819 9-.94 5.12-5.427 9-10.819 9-5.392 0-9.878-3.88-10.819-9C2.121 6.88 6.608 3 12 3zm0 16a9.005 9.005 0 0 0 8.777-7 9.005 9.005 0 0 0-17.554 0A9.005 9.005 0 0 0 12 19zm0-2.5a4.5 4.5 0 1 1 0-9 4.5 4.5 0 0 1 0 9zm0-2a2.5 2.5 0 1 0 0-5 2.5 2.5 0 0 0 0 5z"/></symbol><symbol viewBox="0 0 24 24" id="eye-fill"><path fill="none" d="M0 0h24v24H0z"/><path d="M1.181 12C2.121 6.88 6.608 3 12 3c5.392 0 9.878 3.88 10.819 9-.94 5.12-5.427 9-10.819 9-5.392 0-9.878-3.88-10.819-9zM12 17a5 5 0 1 0 0-10 5 5 0 0 0 0 10zm0-2a3 3 0 1 1 0-6 3 3 0 0 1 0 6z"/></symbol><symbol viewBox="0 0 24 24" id="eye-off-line"><path fill="none" d="M0 0h24v24H0z"/><path d="M17.882 19.297A10.949 10.949 0 0 1 12 21c-5.392 0-9.878-3.88-10.819-9a10.982 10.982 0 0 1 3.34-6.066L1.392 2.808l1.415-1.415 19.799 19.8-1.415 1.414-3.31-3.31zM5.935 7.35A8.965 8.965 0 0 0 3.223 12a9.005 9.005 0 0 0 13.201 5.838l-2.028-2.028A4.5 4.5 0 0 1 8.19 9.604L5.935 7.35zm6.979 6.978l-3.242-3.242a2.5 2.5 0 0 0 3.241 3.241zm7.893 2.264l-1.431-1.43A8.935 8.935 0 0 0 20.777 12 9.005 9.005 0 0 0 9.552 5.338L7.974 3.76C9.221 3.27 10.58 3 12 3c5.392 0 9.878 3.88 10.819 9a10.947 10.947 0 0 1-2.012 4.592zm-9.084-9.084a4.5 4.5 0 0 1 4.769 4.769l-4.77-4.769z"/></symbol><symbol viewBox="0 0 24 24" id="eye-off-fill"><path fill="none" d="M0 0h24v24H0z"/><path d="M4.52 5.934L1.393 2.808l1.415-1.415 19.799 19.8-1.415 1.414-3.31-3.31A10.949 10.949 0 0 1 12 21c-5.392 0-9.878-3.88-10.819-9a10.982 10.982 0 0 1 3.34-6.066zm10.237 10.238l-1.464-1.464a3 3 0 0 1-4.001-4.001L7.828 9.243a5 5 0 0 0 6.929 6.929zM7.974 3.76C9.221 3.27 10.58 3 12 3c5.392 0 9.878 3.88 10.819 9a10.947 10.947 0 0 1-2.012 4.592l-3.86-3.86a5 5 0 0 0-5.68-5.68L7.974 3.761z"/></symbol><symbol viewBox="0 0 24 24" id="eye-close-line"><path fill="none" d="M0 0h24v24H0z"/><path d="M9.342 18.782l-1.931-.518.787-2.939a10.988 10.988 0 0 1-3.237-1.872l-2.153 2.154-1.415-1.415 2.154-2.153a10.957 10.957 0 0 1-2.371-5.07l1.968-.359C3.903 10.812 7.579 14 12 14c4.42 0 8.097-3.188 8.856-7.39l1.968.358a10.957 10.957 0 0 1-2.37 5.071l2.153 2.153-1.415 1.415-2.153-2.154a10.988 10.988 0 0 1-3.237 1.872l.787 2.94-1.931.517-.788-2.94a11.072 11.072 0 0 1-3.74 0l-.788 2.94z"/></symbol><symbol viewBox="0 0 24 24" id="eye-close-fill"><path fill="none" d="M0 0h24v24H0z"/><path d="M10.13 15.842l-.788 2.94-1.931-.518.787-2.939a10.988 10.988 0 0 1-3.237-1.872l-2.153 2.154-1.415-1.415 2.154-2.153a10.957 10.957 0 0 1-2.371-5.07l.9-.165A16.923 16.923 0 0 0 12 10c3.704 0 7.131-1.185 9.924-3.196l.9.164a10.957 10.957 0 0 1-2.37 5.071l2.153 2.153-1.415 1.415-2.153-2.154a10.988 10.988 0 0 1-3.237 1.872l.787 2.94-1.931.517-.788-2.94a11.072 11.072 0 0 1-3.74 0z"/></symbol><symbol viewBox="0 0 24 24" id="user-3-line"><path fill="none" d="M0 0h24v24H0z"/><path d="M20 22h-2v-2a3 3 0 0 0-3-3H9a3 3 0 0 0-3 3v2H4v-2a5 5 0 0 1 5-5h6a5 5 0 0 1 5 5v2zm-8-9a6 6 0 1 1 0-12 6 6 0 0 1 0 12zm0-2a4 4 0 1 0 0-8 4 4 0 0 0 0 8z"/></symbol><symbol viewBox="0 0 24 24" id="account-circle-line"><path fill="none" d="M0 0h24v24H0z"/><path d="M12 22C6.477 22 2 17.523 2 12S6.477 2 12 2s10 4.477 10 10-4.477 10-10 10zm-4.987-3.744A7.966 7.966 0 0 0 12 20c1.97 0 3.773-.712 5.167-1.892A6.979 6.979 0 0 0 12.16 16a6.981 6.981 0 0 0-5.147 2.256zM5.616 16.82A8.975 8.975 0 0 1 12.16 14a8.972 8.972 0 0 1 6.362 2.634 8 8 0 1 0-12.906.187zM12 13a4 4 0 1 1 0-8 4 4 0 0 1 0 8zm0-2a2 2 0 1 0 0-4 2 2 0 0 0 0 4z"/></symbol><symbol viewBox="0 0 24 24" id="account-circle-fill"><path fill="none" d="M0 0h24v24H0z"/><path d="M12 2c5.52 0 10 4.48 10 10s-4.48 10-10 10S2 17.52 2 12 6.48 2 12 2zM6.023 15.416C7.491 17.606 9.695 19 12.16 19c2.464 0 4.669-1.393 6.136-3.584A8.968 8.968 0 0 0 12.16 13a8.968 8.968 0 0 0-6.137 2.416zM12 11a3 3 0 1 0 0-6 3 3 0 0 0 0 6z"/></symbol><symbol viewBox="0 0 24 24" id="share-line"><path fill="none" d="M0 0h24v24H0z"/><path d="M13.12 17.023l-4.199-2.29a4 4 0 1 1 0-5.465l4.2-2.29a4 4 0 1 1 .959 1.755l-4.2 2.29a4.008 4.008 0 0 1 0 1.954l4.199 2.29a4 4 0 1 1-.959 1.755zM6 14a2 2 0 1 0 0-4 2 2 0 0 0 0 4zm11-6a2 2 0 1 0 0-4 2 2 0 0 0 0 4zm0 12a2 2 0 1 0 0-4 2 2 0 0 0 0 4z"/></symbol><symbol viewBox="0 0 24 24" id="share-fill"><path fill="none" d="M0 0h24v24H0z"/><path d="M13.576 17.271l-5.11-2.787a3.5 3.5 0 1 1 0-4.968l5.11-2.787a3.5 3.5 0 1 1 .958 1.755l-5.11 2.787a3.514 3.514 0 0 1 0 1.458l5.11 2.787a3.5 3.5 0 1 1-.958 1.755z"/></symbol><symbol viewBox="0 0 24 24" id="delete-bin-7-line"><path fill="none" d="M0 0h24v24H0z"/><path d="M17 6h5v2h-2v13a1 1 0 0 1-1 1H5a1 1 0 0 1-1-1V8H2V6h5V3a1 1 0 0 1 1-1h8a1 1 0 0 1 1 1v3zm1 2H6v12h12V8zM9 4v2h6V4H9z"/></symbol><symbol viewBox="0 0 24 24" id="delete-bin-7-fill"><path fill="none" d="M0 0h24v24H0z"/><path d="M7 6V3a1 1 0 0 1 1-1h8a1 1 0 0 1 1 1v3h5v2h-2v13a1 1 0 0 1-1 1H5a1 1 0 0 1-1-1V8H2V6h5zm2-2v2h6V4H9z"/></symbol><symbol viewBox="0 0 24 24" id="earth-line"><path fill="none" d="M0 0h24v24H0z"/><path d="M6.235 6.453a8 8 0 0 0 8.817 12.944c.115-.75-.137-1.47-.24-1.722-.23-.56-.988-1.517-2.253-2.844-.338-.355-.316-.628-.195-1.437l.013-.091c.082-.554.22-.882 2.085-1.178.948-.15 1.197.228 1.542.753l.116.172c.328.48.571.59.938.756.165.075.37.17.645.325.652.373.652.794.652 1.716v.105c0 .391-.038.735-.098 1.034a8.002 8.002 0 0 0-3.105-12.341c-.553.373-1.312.902-1.577 1.265-.135.185-.327 1.132-.95 1.21-.162.02-.381.006-.613-.009-.622-.04-1.472-.095-1.744.644-.173.468-.203 1.74.356 2.4.09.105.107.3.046.519-.08.287-.241.462-.292.498-.096-.056-.288-.279-.419-.43-.313-.365-.705-.82-1.211-.96-.184-.051-.386-.093-.583-.135-.549-.115-1.17-.246-1.315-.554-.106-.226-.105-.537-.105-.865 0-.417 0-.888-.204-1.345a1.276 1.276 0 0 0-.306-.43zM12 22C6.477 22 2 17.523 2 12S6.477 2 12 2s10 4.477 10 10-4.477 10-10 10z"/></symbol><symbol viewBox="0 0 24 24" id="shopping-cart-line"><path fill="none" d="M0 0h24v24H0z"/><path d="M4 16V4H2V2h3a1 1 0 0 1 1 1v12h12.438l2-8H8V5h13.72a1 1 0 0 1 .97 1.243l-2.5 10a1 1 0 0 1-.97.757H5a1 1 0 0 1-1-1zm2 7a2 2 0 1 1 0-4 2 2 0 0 1 0 4zm12 0a2 2 0 1 1 0-4 2 2 0 0 1 0 4z"/></symbol><symbol viewBox="0 0 24 24" id="shopping-cart-fill"><path fill="none" d="M0 0h24v24H0z"/><path d="M6 9h13.938l.5-2H8V5h13.72a1 1 0 0 1 .97 1.243l-2.5 10a1 1 0 0 1-.97.757H5a1 1 0 0 1-1-1V4H2V2h3a1 1 0 0 1 1 1v6zm0 14a2 2 0 1 1 0-4 2 2 0 0 1 0 4zm12 0a2 2 0 1 1 0-4 2 2 0 0 1 0 4z"/></symbol><symbol viewBox="0 0 24 24" id="vip-line"><path fill="none" d="M0 0h24v24H0z"/><path d="M2 19h20v2H2v-2zm9-11h2v8h-2V8zM7.965 8h2.125l-2.986 7.964h-2L2.118 8h2.125l1.861 5.113L7.965 8zM17 14v2h-2V8h4a3 3 0 0 1 0 6h-2zm0-4v2h2a1 1 0 0 0 0-2h-2zM2 3h20v2H2V3z"/></symbol><symbol viewBox="0 0 24 24" id="vip-fill"><path fill="none" d="M0 0h24v24H0z"/><path d="M3 3h18a1 1 0 0 1 1 1v16a1 1 0 0 1-1 1H3a1 1 0 0 1-1-1V4a1 1 0 0 1 1-1zm8 5.5v7h2v-7h-2zm-.285 0H8.601l-1.497 4.113L5.607 8.5H3.493l2.611 6.964h2L10.715 8.5zm5.285 5h1.5a2.5 2.5 0 1 0 0-5H14v7h2v-2zm0-2v-1h1.5a.5.5 0 1 1 0 1H16z"/></symbol><symbol viewBox="0 0 24 24" id="external-link-line"><path fill="none" d="M0 0h24v24H0z"/><path d="M10 6v2H5v11h11v-5h2v6a1 1 0 0 1-1 1H4a1 1 0 0 1-1-1V7a1 1 0 0 1 1-1h6zm11-3v8h-2V6.413l-7.793 7.794-1.414-1.414L17.585 5H13V3h8z"/></symbol><symbol viewBox="0 0 24 24" id="alipay-line"><path fill="none" d="M0 0h24v24H0z"/><path d="M18.408 16.79c-2.173-.95-3.72-1.646-4.64-2.086-1.4 1.696-2.872 2.72-5.08 2.72S5 16.064 5.176 14.392c.12-1.096.872-2.888 4.128-2.576 1.72.16 2.504.48 3.912.944.36-.664.664-1.4.888-2.176H7.88v-.616h3.072V8.864H7.2v-.68h3.752V6.592s.032-.248.312-.248H12.8v1.848h4v.68h-4v1.104h3.264a12.41 12.41 0 0 1-1.32 3.32c.51.182 2.097.676 4.76 1.483a8 8 0 1 0-1.096 2.012zM12 22C6.477 22 2 17.523 2 12S6.477 2 12 2s10 4.477 10 10-4.477 10-10 10zm-3.568-5.632c1.44 0 2.824-.872 3.96-2.352-1.608-.776-2.944-1.16-4.44-1.16-1.304 0-1.984.8-2.104 1.416-.12.616.248 2.096 2.584 2.096z"/></symbol><symbol viewBox="0 0 24 24" id="wechat-pay-line"><path fill="none" d="M0 0h24v24H0z"/><path d="M19.145 8.993l-9.799 5.608-.07.046a.646.646 0 0 1-.3.068.655.655 0 0 1-.58-.344l-.046-.092-1.83-3.95c-.024-.046-.024-.092-.024-.138 0-.184.139-.321.324-.321.07 0 .14.023.209.069l2.155 1.515c.162.092.348.161.556.161a.937.937 0 0 0 .348-.069l8.275-3.648C16.934 6.273 14.634 5.2 12 5.2c-4.42 0-7.9 3.022-7.9 6.6 0 1.366.5 2.673 1.432 3.781.048.057.12.137.214.235a4 4 0 0 1 1.101 3.102l-.025.297.716-.436a4 4 0 0 1 2.705-.536c.212.033.386.059.52.076.406.054.82.081 1.237.081 4.42 0 7.9-3.022 7.9-6.6 0-.996-.27-1.95-.755-2.807zM6.192 21.943a1 1 0 0 1-1.526-.932l.188-2.259a2 2 0 0 0-.55-1.551A6.993 6.993 0 0 1 4 16.868C2.806 15.447 2.1 13.695 2.1 11.8c0-4.75 4.432-8.6 9.9-8.6s9.9 3.85 9.9 8.6-4.432 8.6-9.9 8.6c-.51 0-1.01-.033-1.499-.098a23.61 23.61 0 0 1-.569-.084 2 2 0 0 0-1.353.268l-2.387 1.456z"/></symbol><symbol viewBox="0 0 24 24" id="menu-3-line"><path fill="none" d="M0 0h24v24H0z"/><path d="M3 4h18v2H3V4zm6 7h12v2H9v-2zm-6 7h18v2H3v-2z"/></symbol></svg>