<?xml version="1.0" encoding="UTF-8" standalone="no"?>
<!DOCTYPE svg PUBLIC "-//W3C//DTD SVG 1.1//EN" "http://www.w3.org/Graphics/SVG/1.1/DTD/svg11.dtd">
<svg width="100%" height="100%" viewBox="0 0 1362 1292" version="1.1" xmlns="http://www.w3.org/2000/svg" xmlns:xlink="http://www.w3.org/1999/xlink" xml:space="preserve" xmlns:serif="http://www.serif.com/" style="fill-rule:evenodd;clip-rule:evenodd;stroke-linejoin:round;stroke-miterlimit:2;">
    <g transform="matrix(1,0,0,1,-2922,0)">
        <g id="业务组件" transform="matrix(1,0,0,1,-0.658509,0)">
            <rect x="2922.66" y="0" width="1361.66" height="1291.52" style="fill:none;"/>
            <g transform="matrix(1.79878,0,0,1.93666,2566,-198.906)">
                <path d="M814.774,650.831L338.774,650.831C334.662,650.826 331.279,647.443 331.274,643.331L331.274,186.331C331.279,182.218 334.662,178.835 338.774,178.831L814.774,178.831C818.887,178.835 822.27,182.218 822.274,186.331L822.274,643.331C822.27,647.443 818.887,650.826 814.774,650.831ZM338.774,181.831C336.307,181.833 334.277,183.863 334.274,186.331L334.274,643.331C334.277,645.798 336.307,647.828 338.774,647.831L814.774,647.831C817.242,647.828 819.272,645.798 819.274,643.331L819.274,186.331C819.272,183.863 817.242,181.833 814.774,181.831L338.774,181.831Z" style="fill:rgb(230,230,230);fill-rule:nonzero;"/>
            </g>
            <g transform="matrix(1.68393,0,0,1.68393,-2659.61,-57.0735)">
                <text x="3601.98px" y="391.573px" style="font-family:'BMJUAOTF', 'BM Jua', serif;font-size:45.522px;fill-opacity:0.18;">comi<tspan x="3686.93px " y="391.573px ">n</tspan>g soon</text>
            </g>
        </g>
    </g>
</svg>
