<?xml version="1.0" encoding="UTF-8" standalone="no"?><!DOCTYPE svg PUBLIC "-//W3C//DTD SVG 1.1//EN" "http://www.w3.org/Graphics/SVG/1.1/DTD/svg11.dtd"><svg width="100%" height="100%" viewBox="0 0 948 190" version="1.1" xmlns="http://www.w3.org/2000/svg" xmlns:xlink="http://www.w3.org/1999/xlink" xml:space="preserve" xmlns:serif="http://www.serif.com/" style="fill-rule:evenodd;clip-rule:evenodd;stroke-linejoin:round;stroke-miterlimit:2;"><g id="原始字体-曲线"><g><path d="M642.778,83.449c-0,-25.017 -14.409,-44.381 -40.618,-46.185c-1.702,-0.121 -5.105,-0.241 -8.623,-0.241c-14.068,0 -25.301,0.481 -26.208,16.959c-0.341,6.494 -0.681,20.446 -0.681,33.676c0,10.103 0.227,19.845 0.567,25.738c1.135,16.839 17.246,16.959 26.322,16.959c11.8,-0 49.241,-0.12 49.241,-46.906Zm-41.752,-33.316c17.359,-0 28.364,13.952 28.364,33.316c-0,34.037 -23.94,34.037 -35.853,34.037c-9.417,-0 -12.934,-0.962 -13.501,-6.495c-0.454,-4.57 -0.681,-13.471 -0.681,-22.972c0,-12.99 0.341,-26.821 0.681,-31.872c0.34,-6.014 6.467,-6.134 11.913,-6.134c4.198,-0 9.077,0.12 9.077,0.12Z" style="fill-opacity:0.02;fill-rule:nonzero;"/><path d="M643.82,83.449c-0,-12.809 -3.72,-24.16 -10.782,-32.535c-7.045,-8.355 -17.418,-13.768 -30.806,-14.689c-0.986,-0.07 -2.539,-0.14 -4.355,-0.187c-1.343,-0.035 -2.831,-0.057 -4.34,-0.057c-8.841,0 -16.577,0.285 -21.505,4.267c-3.252,2.628 -5.367,6.841 -5.743,13.676c-0,0.001 -0,0.002 -0,0.003c-0.195,3.705 -0.389,9.833 -0.52,16.87c-0.099,5.318 -0.163,11.157 -0.163,16.861c0,5.443 0.066,10.782 0.18,15.472c0.098,4.037 0.232,7.594 0.389,10.327c0.001,0.003 0.001,0.006 0.001,0.01c0.43,6.382 2.918,10.487 6.338,13.147c5.988,4.659 14.999,4.783 21.023,4.783c7.452,-0 24.912,-0.103 37.143,-11.465c7.538,-7.003 13.14,-18.275 13.14,-36.483Zm-2.084,-0c0,17.428 -5.259,28.254 -12.474,34.956c-11.753,10.919 -28.564,10.908 -35.725,10.908c-5.649,0 -14.129,0.025 -19.744,-4.343c-3.02,-2.35 -5.157,-6.004 -5.538,-11.639c-0.157,-2.713 -0.289,-6.244 -0.386,-10.251c-0.114,-4.675 -0.179,-9.996 -0.179,-15.422c-0,-5.691 0.063,-11.516 0.162,-16.823c0.13,-7.006 0.324,-13.107 0.517,-16.797c0.334,-6.058 2.09,-9.841 4.973,-12.17c4.618,-3.732 11.908,-3.803 20.195,-3.803c1.49,-0 2.96,0.022 4.287,0.056c1.777,0.046 3.297,0.114 4.263,0.182c0,-0 0.001,-0 0.002,-0c12.75,0.878 22.647,5.997 29.357,13.954c6.767,8.026 10.29,18.917 10.29,31.192Zm-40.708,-34.358c-0,0 -9.079,-0.12 -9.079,-0.12c-3.329,-0 -6.892,0.09 -9.374,1.362c-2.013,1.031 -3.408,2.77 -3.579,5.749c-0.168,2.504 -0.337,7.152 -0.465,12.785c-0.13,5.767 -0.217,12.567 -0.217,19.152c-0,4.944 0.061,9.726 0.184,13.823c0.114,3.814 0.282,7.037 0.501,9.252c0.001,0.001 0.001,0.002 0.001,0.003c0.333,3.253 1.591,5.117 4.116,6.199c2.216,0.949 5.562,1.231 10.421,1.231c7.423,0 19.369,-0.076 27.638,-7.876c5.376,-5.072 9.257,-13.413 9.257,-27.202c-0,-9.495 -2.596,-17.716 -7.225,-23.726c-5.129,-6.658 -12.75,-10.631 -22.179,-10.632Zm-9.079,1.963l9.077,0.121c8.725,-0 15.785,3.658 20.531,9.819c4.378,5.685 6.791,13.474 6.791,22.455c0,12.999 -3.534,20.905 -8.603,25.686c-7.829,7.385 -19.18,7.309 -26.208,7.309c-4.473,0 -7.561,-0.19 -9.601,-1.063c-1.808,-0.775 -2.625,-2.166 -2.864,-4.495c-0.216,-2.18 -0.38,-5.353 -0.492,-9.107c-0.122,-4.078 -0.183,-8.838 -0.183,-13.76c-0,-6.569 0.087,-13.352 0.217,-19.105c0.127,-5.595 0.294,-10.213 0.461,-12.697c0.001,-0.004 0.001,-0.008 0.001,-0.012c0.117,-2.07 1.05,-3.302 2.448,-4.018c2.228,-1.142 5.438,-1.133 8.425,-1.133Z" style="fill:#9c9c9c;"/><path d="M704.158,120.132c1.248,-1.323 1.702,-2.766 1.702,-4.21c0,-3.367 -2.95,-6.254 -6.013,-6.254c-1.362,0 -2.723,0.601 -3.858,1.924c-3.29,3.729 -7.601,7.337 -14.749,7.337c-8.056,0 -15.317,-6.014 -15.43,-15.996c-0,-1.323 0.227,-2.285 0.907,-2.285c22.011,-0 24.394,-0 27.911,-0.121c7.261,-0.24 10.778,-4.811 10.778,-10.463c0,-9.141 -8.849,-21.289 -24.506,-21.289c-14.636,0 -26.89,12.629 -26.89,31.031c0,17.92 11.573,30.308 27.116,30.308c11.46,0 17.586,-3.969 23.032,-9.982Zm-12.82,-29.467c-3.064,0.12 -8.169,0.12 -12.821,0.12c-10.552,0 -11.686,0 -11.686,-1.082c-0,-2.045 4.992,-10.464 14.182,-10.464c10.211,-0 12.594,7.096 12.594,8.78c-0,1.443 -0.908,2.526 -2.269,2.646Z" style="fill-opacity:0.02;fill-rule:nonzero;"/><path d="M666.998,101.689c12.335,0 18.441,0 22.055,-0.022c2.773,-0.017 4.085,-0.047 5.609,-0.099c3.695,-0.122 6.489,-1.303 8.429,-3.124c2.235,-2.098 3.357,-5.065 3.357,-8.38c-0,-5.364 -2.872,-11.728 -8.299,-16.288c-4.248,-3.57 -10.057,-6.042 -17.249,-6.042c-8.114,-0 -15.527,3.721 -20.68,10.101c-4.479,5.545 -7.252,13.106 -7.252,21.971c0,8.831 2.741,16.354 7.333,21.811c5.064,6.017 12.38,9.539 20.825,9.539c5.352,0 9.574,-0.848 13.117,-2.342c4.295,-1.81 7.597,-4.572 10.681,-7.976c0.68,-0.723 1.154,-1.478 1.469,-2.249c0.357,-0.875 0.509,-1.771 0.509,-2.667c-0,-1.919 -0.813,-3.707 -2.071,-5.031c-1.326,-1.396 -3.142,-2.265 -4.984,-2.265c-0.888,0 -1.775,0.208 -2.621,0.647c-0.712,0.371 -1.397,0.908 -2.021,1.634c-1.702,1.928 -3.683,3.829 -6.232,5.161c-2.126,1.11 -4.65,1.819 -7.733,1.819c-3.944,0 -7.685,-1.541 -10.362,-4.358c-2.431,-2.558 -3.975,-6.164 -4.027,-10.601c0.001,-0.436 0.098,-0.991 0.147,-1.239Zm36.403,17.728c-0.005,0.005 -0.01,0.01 -0.015,0.016c-2.877,3.177 -5.945,5.772 -9.952,7.462c-3.323,1.401 -7.288,2.178 -12.308,2.178c-7.797,-0 -14.556,-3.242 -19.231,-8.798c-4.307,-5.118 -6.843,-12.186 -6.843,-20.469c-0,-8.333 2.579,-15.45 6.788,-20.661c4.752,-5.883 11.579,-9.328 19.06,-9.328c6.63,-0 11.992,2.262 15.909,5.554c4.905,4.121 7.556,9.845 7.556,14.693c-0,2.707 -0.874,5.148 -2.7,6.861c-1.623,1.524 -3.98,2.459 -7.072,2.561c-0,0 -0,0 -0.001,0c-1.508,0.052 -2.807,0.081 -5.552,0.098c-3.639,0.022 -9.806,0.022 -22.323,0.022c-0.674,-0 -1.205,0.331 -1.551,1.01c-0.259,0.51 -0.398,1.331 -0.398,2.317c0,0.004 0,0.008 0,0.012c0.057,5.036 1.841,9.116 4.6,12.019c3.068,3.229 7.352,5.007 11.872,5.007c3.469,-0 6.305,-0.807 8.697,-2.057c2.79,-1.457 4.971,-3.522 6.833,-5.632c0.004,-0.004 0.007,-0.008 0.01,-0.011c0.436,-0.508 0.909,-0.89 1.407,-1.149c0.536,-0.279 1.098,-0.412 1.66,-0.412c1.289,-0 2.545,0.639 3.474,1.616c0.9,0.948 1.497,2.222 1.497,3.596c0,0.632 -0.102,1.263 -0.354,1.88c-0.226,0.554 -0.573,1.095 -1.063,1.615Zm-12.023,-27.711c0.017,-0.001 0.034,-0.002 0.051,-0.003c0.993,-0.088 1.812,-0.541 2.381,-1.23c0.525,-0.636 0.838,-1.483 0.838,-2.454c0,-1.234 -1.063,-5.107 -5.041,-7.615c-2.018,-1.272 -4.798,-2.207 -8.594,-2.207c-3.837,0 -6.992,1.368 -9.411,3.17c-3.889,2.897 -5.813,6.964 -5.813,8.336c0,0.445 0.116,0.804 0.367,1.113c0.213,0.263 0.558,0.521 1.19,0.681c1.202,0.305 4.149,0.33 11.171,0.33c2.569,-0 5.276,-0 7.702,-0.02c1.982,-0.017 3.777,-0.047 5.159,-0.101Zm-23.487,-2.22c0.195,-1.274 1.958,-4.216 4.955,-6.448c2.1,-1.564 4.836,-2.757 8.167,-2.757c3.302,-0 5.728,0.779 7.483,1.885c3.105,1.958 4.069,4.89 4.069,5.853c0,0.443 -0.122,0.837 -0.362,1.127c-0.22,0.267 -0.539,0.435 -0.92,0.478l-12.766,0.12c-6.635,-0 -9.457,0.024 -10.626,-0.258Z" style="fill:#9c9c9c;"/><path d="M753.172,112.314c-0,-5.893 -3.29,-12.027 -11.119,-16.477c-3.404,-1.925 -8.509,-4.33 -11.459,-5.894c-2.61,-1.323 -3.744,-3.488 -3.744,-5.292c-0,-2.646 2.155,-4.931 6.013,-4.931c3.971,0 6.013,1.684 7.148,2.887c1.475,1.683 3.177,2.405 4.652,2.405c3.063,0 5.672,-2.766 5.672,-6.014c0,-4.69 -7.034,-10.103 -17.472,-10.103c-10.892,0 -17.246,7.939 -17.246,16.117c0,5.893 3.177,11.787 10.212,15.034c13.274,6.375 15.77,8.66 15.77,12.509c0,2.766 -2.382,6.134 -8.396,6.134c-4.651,-0 -7.601,-2.045 -9.19,-4.21c-1.248,-1.804 -2.95,-2.526 -4.538,-2.526c-2.95,0 -5.786,2.526 -5.786,5.773c-0,3.969 5.786,12.268 19.628,12.268c11.346,0 19.855,-8.299 19.855,-17.68Z" style="fill-opacity:0.02;fill-rule:nonzero;"/><path d="M754.213,112.314c0,-3.483 -1.075,-7.048 -3.466,-10.338c-1.872,-2.575 -4.557,-4.986 -8.179,-7.045c-0.001,-0 -0.002,-0.001 -0.002,-0.001c-1.03,-0.582 -2.214,-1.208 -3.447,-1.841c-2.852,-1.466 -5.973,-2.972 -8.037,-4.066c-0.006,-0.003 -0.012,-0.006 -0.017,-0.009c-0.989,-0.501 -1.736,-1.138 -2.257,-1.832c-0.619,-0.823 -0.917,-1.72 -0.917,-2.531c0,-1.136 0.516,-2.185 1.48,-2.896c0.851,-0.628 2.031,-0.993 3.492,-0.993c1.431,-0 2.585,0.236 3.521,0.596c1.36,0.523 2.244,1.305 2.846,1.939c0.756,0.859 1.554,1.487 2.355,1.926c1.047,0.575 2.105,0.831 3.078,0.831c1.854,-0 3.573,-0.841 4.809,-2.188c1.172,-1.276 1.905,-3.004 1.905,-4.868c0,-2.645 -1.905,-5.561 -5.382,-7.738c-3.195,-2 -7.724,-3.406 -13.132,-3.406c-5.377,-0 -9.704,1.843 -12.797,4.672c-3.562,3.258 -5.49,7.835 -5.49,12.486c-0,3.357 0.968,6.713 3.012,9.64c1.766,2.527 4.337,4.738 7.796,6.336c6.508,3.126 10.388,5.24 12.636,7.056c1.958,1.581 2.537,2.866 2.537,4.511c0,1.356 -0.726,2.874 -2.347,3.884c-1.192,0.743 -2.84,1.208 -5.007,1.208c-1.851,-0 -3.411,-0.347 -4.7,-0.909c-1.634,-0.711 -2.828,-1.763 -3.633,-2.853c-0.68,-0.977 -1.465,-1.673 -2.293,-2.147c-1.002,-0.574 -2.072,-0.826 -3.102,-0.826c-1.771,-0 -3.511,0.762 -4.789,2.025c-1.236,1.222 -2.039,2.904 -2.039,4.789c0,2.333 1.738,6.086 5.768,9.014c3.319,2.411 8.203,4.296 14.902,4.296c5.645,-0 10.618,-1.964 14.291,-5.072c4.121,-3.487 6.605,-8.413 6.605,-13.65Zm-2.083,0c0,4.632 -2.223,8.976 -5.868,12.06c-3.326,2.813 -7.834,4.578 -12.945,4.578c-4.905,0 -8.758,-1.074 -11.663,-2.636c-4.718,-2.536 -6.924,-6.306 -6.924,-8.59c0,-1.303 0.565,-2.462 1.42,-3.307c0.889,-0.878 2.093,-1.424 3.325,-1.424c0.686,-0 1.399,0.168 2.066,0.551c0.589,0.337 1.14,0.838 1.616,1.526c0.005,0.008 0.011,0.015 0.016,0.023c0.995,1.355 2.47,2.67 4.498,3.553c1.519,0.661 3.352,1.082 5.532,1.082c3.361,0 5.687,-0.989 7.179,-2.323c1.575,-1.407 2.259,-3.221 2.259,-4.852c-0,-2.215 -0.675,-4.002 -3.312,-6.132c-2.324,-1.876 -6.321,-4.085 -13.049,-7.316c-0.005,-0.002 -0.01,-0.004 -0.015,-0.007c-3.088,-1.425 -5.393,-3.386 -6.969,-5.641c-1.791,-2.565 -2.637,-5.506 -2.637,-8.447c0,-4.078 1.69,-8.092 4.813,-10.949c2.75,-2.516 6.609,-4.126 11.391,-4.126c4.95,0 9.102,1.258 12.026,3.089c2.738,1.714 4.405,3.89 4.405,5.972c-0,1.325 -0.524,2.552 -1.357,3.459c-0.844,0.92 -2.009,1.513 -3.274,1.513c-0.658,0 -1.369,-0.185 -2.076,-0.573c-0.614,-0.337 -1.222,-0.825 -1.793,-1.477c-0.008,-0.009 -0.017,-0.019 -0.026,-0.028c-0.762,-0.808 -1.893,-1.807 -3.636,-2.478c-1.135,-0.437 -2.533,-0.736 -4.269,-0.736c-1.985,0 -3.572,0.547 -4.728,1.4c-1.522,1.123 -2.327,2.781 -2.327,4.573c0,1.208 0.413,2.556 1.334,3.782c0.69,0.919 1.669,1.774 2.978,2.438c2.064,1.094 5.19,2.603 8.047,4.071c1.207,0.619 2.365,1.231 3.372,1.801c3.327,1.891 5.803,4.093 7.522,6.458c2.109,2.901 3.069,6.041 3.069,9.113Z" style="fill:#9c9c9c;"/><path d="M773.254,54.102c4.878,-0 7.942,-4.21 7.942,-8.539c-0,-4.571 -3.858,-8.179 -7.942,-8.179c-3.177,-0 -7.942,2.285 -7.942,8.179c-0,5.532 3.517,8.539 7.942,8.539Zm6.126,69.518l0,-0.241c-0.113,-6.615 -0.226,-15.154 -0.226,-23.453c-0,-10.103 0.113,-19.605 0.226,-24.536l0,-0.24c0,-3.849 -3.063,-5.773 -6.013,-5.773c-3.404,-0 -6.24,2.164 -6.126,6.134c0.113,3.247 0.113,8.058 0.113,13.47c-0,10.945 -0.113,24.656 -0.113,34.639c-0,4.089 2.949,6.134 6.013,6.134c3.063,-0 6.126,-2.045 6.126,-6.134Z" style="fill-opacity:0.02;fill-rule:nonzero;"/><path d="M780.422,123.62l-0,-0.259l-0.227,-23.435c0,-4.297 0.021,-8.486 0.053,-12.26c0.044,-5.089 0.109,-9.423 0.174,-12.252l0,-0.264c0,-2.168 -0.836,-3.814 -2.072,-4.952c-1.343,-1.234 -3.179,-1.863 -4.983,-1.863c-2.038,-0 -3.894,0.689 -5.205,1.966c-1.25,1.217 -2.027,2.974 -1.963,5.239l0.113,13.441l-0.113,34.639c-0,2.236 0.777,3.94 1.948,5.129c1.333,1.355 3.198,2.046 5.107,2.046c1.894,0 3.784,-0.682 5.146,-2.023c1.211,-1.192 2.022,-2.904 2.022,-5.152Zm-2.083,-0c-0,1.594 -0.542,2.822 -1.4,3.667c-0.973,0.958 -2.332,1.425 -3.685,1.425c-1.35,-0 -2.679,-0.466 -3.622,-1.424c-0.834,-0.847 -1.35,-2.075 -1.35,-3.668l0.114,-34.639l-0.114,-13.507c-0.046,-1.581 0.457,-2.828 1.333,-3.681c0.942,-0.917 2.288,-1.375 3.752,-1.375c1.291,0 2.612,0.43 3.572,1.314c0.851,0.782 1.4,1.926 1.4,3.418l-0,0.228c-0.065,2.836 -0.131,7.176 -0.174,12.271c-0.033,3.779 -0.053,7.973 -0.053,12.277l0.227,23.455c-0,0 -0,0.239 -0,0.239Zm-5.085,-68.476c2.732,-0 4.962,-1.164 6.522,-2.931c1.577,-1.786 2.461,-4.2 2.461,-6.65c0,-2.511 -1.029,-4.766 -2.622,-6.416c-1.682,-1.743 -3.99,-2.805 -6.361,-2.805c-2.013,0 -4.592,0.812 -6.466,2.702c-1.465,1.475 -2.518,3.602 -2.518,6.519c0,2.903 0.895,5.174 2.329,6.775c1.639,1.831 3.999,2.806 6.655,2.806Zm-0,-2.084c-2.031,0 -3.85,-0.712 -5.103,-2.112c-1.136,-1.268 -1.798,-3.084 -1.798,-5.385c0,-2.255 0.782,-3.911 1.914,-5.052c1.446,-1.458 3.434,-2.085 4.987,-2.085c1.815,-0 3.574,0.833 4.862,2.168c1.234,1.279 2.038,3.023 2.038,4.969c0,1.941 -0.691,3.856 -1.94,5.271c-1.186,1.344 -2.883,2.226 -4.96,2.226Z" style="fill:#9c9c9c;"/><path d="M820.339,110.149c13.955,-0.601 21.443,-8.66 21.443,-20.206c-0,-3.608 -0.227,-4.811 -1.021,-7.096c-0.114,-0.361 -0.114,-0.601 -0.114,-0.721c0,-0.482 0.227,-0.482 0.454,-0.602c0.681,-0.361 1.135,-0.721 2.383,-0.721c0.34,-0 0.907,-0 1.475,0.12c0.454,0.12 0.794,0.12 1.248,0.12c3.177,0 4.765,-2.766 4.765,-5.532c-0,-5.894 -4.765,-6.255 -8.055,-6.255c-2.383,0 -4.312,0.722 -7.602,2.526c-0.567,0.361 -1.135,0.601 -1.815,0.601c-0.454,0 -1.135,-0.12 -1.929,-0.601c-3.858,-1.924 -8.283,-2.887 -12.594,-2.887l-0.227,0c-11.119,0 -22.464,7.097 -22.464,21.048c-0,5.052 2.382,11.306 6.807,14.914c0.908,0.722 1.248,1.083 1.248,1.443c0,0.361 -0.681,0.602 -1.475,1.083c-4.425,2.526 -6.467,6.254 -6.467,10.704c0,3.127 1.815,7.096 6.24,8.54c0.794,0.24 1.021,0.481 1.021,0.721c0,0.12 -0.227,0.361 -0.567,0.481c-5.446,2.406 -9.984,6.856 -9.984,13.471c-0,7.818 7.261,18.883 27.797,18.883c15.203,-0 30.066,-6.736 30.066,-22.852c-0,-9.863 -7.602,-18.642 -24.62,-18.642c-17.132,-0 -18.494,-0.482 -18.494,-2.647c0,-4.81 7.715,-5.773 12.481,-5.893Zm10.891,-20.446c0,6.976 -5.672,10.463 -12.366,10.463c-10.098,0 -11.46,-7.216 -11.46,-10.343c0,-6.134 5.219,-10.584 11.913,-10.584c8.51,-0 11.913,5.051 11.913,10.464Zm7.829,48.349c-0,10.945 -14.749,11.426 -17.926,11.426c-16.338,0 -16.678,-8.298 -16.678,-9.381c-0,-1.443 1.588,-11.185 16.564,-11.185c8.623,-0 18.04,-0 18.04,9.14Z" style="fill-opacity:0.02;fill-rule:nonzero;"/><path d="M818.75,67.854l0,-0c-6.022,-0 -12.104,2.007 -16.566,5.96c-4.166,3.692 -6.94,9.074 -6.94,16.129c-0,2.719 0.652,5.771 1.917,8.61c1.213,2.723 2.989,5.248 5.274,7.111l0.527,0.455c-0.201,0.115 -0.43,0.249 -0.629,0.369c-2.288,1.308 -3.98,2.926 -5.126,4.779c-1.245,2.015 -1.85,4.311 -1.85,6.82c0,1.891 0.594,4.057 1.924,5.901c1.008,1.397 2.436,2.611 4.349,3.379c-2.498,1.248 -4.757,2.93 -6.447,5.046c-1.92,2.402 -3.116,5.359 -3.116,8.887c0,4.307 2.047,9.557 7.087,13.599c4.543,3.643 11.555,6.325 21.752,6.325c9.301,0 18.464,-2.489 24.386,-7.952c4.133,-3.812 6.722,-9.061 6.722,-15.941c-0,-6.054 -2.7,-11.724 -8.476,-15.424c-4.098,-2.626 -9.776,-4.26 -17.186,-4.26c-6.682,-0 -10.95,-0.072 -13.67,-0.292c-1.544,-0.124 -2.55,-0.285 -3.2,-0.527c-0.487,-0.181 -0.582,-0.427 -0.582,-0.786c-0,-1.695 1.29,-2.717 2.959,-3.421c2.53,-1.067 5.959,-1.366 8.506,-1.431c0.006,0 0.012,0 0.018,-0c6.851,-0.295 12.197,-2.343 15.948,-5.653c4.259,-3.759 6.493,-9.157 6.493,-15.594c-0,-2.044 -0.075,-3.347 -0.272,-4.493c-0.167,-0.969 -0.42,-1.828 -0.798,-2.919l-0.026,-0.163c0.272,-0.151 0.512,-0.302 0.828,-0.404c0.24,-0.077 0.53,-0.12 0.928,-0.12l1.253,0.097c0.214,0.055 0.409,0.089 0.6,0.11c0.281,0.031 0.551,0.034 0.87,0.034c1.941,-0 3.398,-0.845 4.377,-2.106c0.943,-1.215 1.43,-2.839 1.43,-4.468c-0,-3.158 -1.222,-4.938 -2.852,-5.973c-1.825,-1.159 -4.272,-1.323 -6.245,-1.323c-1.209,-0 -2.312,0.168 -3.505,0.546c-1.317,0.417 -2.754,1.096 -4.598,2.108c-0.02,0.011 -0.039,0.022 -0.058,0.034c-0.215,0.137 -0.428,0.253 -0.653,0.333c-0.189,0.067 -0.387,0.106 -0.603,0.106c-0.18,-0 -0.411,-0.031 -0.681,-0.119c-0.217,-0.071 -0.455,-0.178 -0.709,-0.332c-0.024,-0.015 -0.049,-0.028 -0.074,-0.041c-2.004,-1 -4.155,-1.75 -6.366,-2.25c-2.201,-0.497 -4.462,-0.746 -6.693,-0.746l-0.227,0Zm1.552,41.254c-2.774,0.071 -6.5,0.432 -9.253,1.594c-2.514,1.061 -4.232,2.786 -4.232,5.34c-0,0.69 0.132,1.259 0.497,1.747c0.435,0.58 1.301,1.113 3.167,1.411c2.499,0.4 7.174,0.53 15.871,0.53c6.921,0 12.235,1.479 16.062,3.931c5.12,3.28 7.516,8.304 7.516,13.67c0,7.849 -3.708,13.357 -9.269,16.861c-5.414,3.412 -12.548,4.949 -19.755,4.949c-7.591,0 -13.319,-1.538 -17.498,-3.884c-6.589,-3.701 -9.258,-9.4 -9.258,-13.957c0,-3.012 1.022,-5.536 2.66,-7.587c1.711,-2.14 4.083,-3.768 6.668,-4.915c0.358,-0.135 0.642,-0.343 0.824,-0.533c0.316,-0.331 0.4,-0.694 0.4,-0.917c-0,-0.37 -0.115,-0.765 -0.555,-1.135c-0.221,-0.185 -0.588,-0.395 -1.197,-0.581c-1.783,-0.583 -3.09,-1.63 -3.979,-2.863c-1.056,-1.463 -1.53,-3.182 -1.53,-4.682c-0,-2.105 0.493,-4.034 1.538,-5.724c0.98,-1.585 2.441,-2.955 4.403,-4.075c0.008,-0.005 0.016,-0.01 0.024,-0.014c0.608,-0.369 1.149,-0.625 1.433,-0.871c0.393,-0.339 0.544,-0.721 0.544,-1.103c-0,-0.363 -0.109,-0.747 -0.469,-1.186c-0.225,-0.275 -0.595,-0.613 -1.166,-1.067c-2.034,-1.66 -3.604,-3.917 -4.684,-6.342c-1.141,-2.56 -1.737,-5.31 -1.737,-7.762c0,-6.368 2.478,-11.237 6.239,-14.569c4.088,-3.622 9.667,-5.437 15.184,-5.437l0.227,0c2.078,0 4.183,0.232 6.234,0.695c2.031,0.459 4.008,1.145 5.851,2.06c0.401,0.239 0.772,0.4 1.11,0.511c0.525,0.171 0.977,0.222 1.328,0.222c0.465,0 0.891,-0.081 1.298,-0.225c0.361,-0.128 0.706,-0.306 1.05,-0.523c1.679,-0.919 2.987,-1.549 4.193,-1.93c0.979,-0.31 1.883,-0.449 2.876,-0.449c1.615,-0 3.634,0.05 5.128,0.999c1.137,0.721 1.885,2.012 1.885,4.214c0,1.16 -0.32,2.325 -0.992,3.19c-0.61,0.785 -1.522,1.3 -2.731,1.3l-0.981,-0.085c-0.017,-0.005 -0.034,-0.009 -0.051,-0.012l-1.691,-0.143c-0.672,-0 -1.16,0.09 -1.567,0.22c-0.494,0.159 -0.858,0.387 -1.304,0.623c-0.268,0.142 -0.5,0.256 -0.677,0.476c-0.167,0.207 -0.33,0.506 -0.33,1.046l0.161,1.034c0.003,0.01 0.006,0.019 0.01,0.029c0.424,1.22 0.679,2.109 0.817,3.274c0.108,0.909 0.146,1.979 0.146,3.48c0,5.784 -1.96,10.654 -5.788,14.032c-3.44,3.036 -8.362,4.86 -14.644,5.133l-0.006,0Zm19.799,28.944c-0,-4.44 -1.997,-6.953 -5.017,-8.393c-3.658,-1.744 -8.991,-1.789 -14.065,-1.789c-6.447,0 -10.528,1.753 -13.115,3.883c-3.923,3.23 -4.491,7.402 -4.491,8.344c-0,0.773 0.105,4.842 4.901,7.697c2.569,1.53 6.569,2.726 12.819,2.726c2.16,0 9.438,-0.248 14.255,-3.556c2.732,-1.875 4.713,-4.691 4.713,-8.912Zm-2.084,0c0,3.409 -1.602,5.68 -3.808,7.195c-4.413,3.03 -11.097,3.19 -13.076,3.19c-5.724,-0 -9.401,-1.032 -11.754,-2.433c-3.715,-2.212 -3.883,-5.308 -3.883,-5.907c0,-0.886 0.723,-5.197 5.403,-7.887c2.317,-1.332 5.571,-2.257 10.12,-2.257c4.746,0 9.747,-0.045 13.169,1.586c2.333,1.113 3.829,3.082 3.829,6.513Zm-5.745,-48.349c0,-3.342 -1.199,-6.55 -3.882,-8.735c-2.064,-1.681 -5.029,-2.771 -9.073,-2.771c-3.497,0 -6.618,1.137 -8.914,3.046c-2.505,2.083 -4.04,5.084 -4.04,8.58c-0,2.128 0.597,5.964 3.654,8.596c1.864,1.605 4.656,2.789 8.847,2.789c3.541,0 6.809,-0.932 9.221,-2.75c2.557,-1.928 4.187,-4.842 4.187,-8.755Zm-2.083,-0c-0,3.164 -1.29,5.533 -3.358,7.092c-2.081,1.568 -4.913,2.33 -7.967,2.33c-3.537,-0 -5.915,-0.93 -7.488,-2.284c-2.489,-2.143 -2.93,-5.285 -2.93,-7.018c0,-2.844 1.252,-5.284 3.289,-6.978c1.951,-1.623 4.611,-2.564 7.582,-2.564c3.449,-0 5.997,0.868 7.758,2.303c2.18,1.776 3.114,4.402 3.114,7.119Z" style="fill:#9c9c9c;"/><path d="M898.511,123.379c-0,3.849 2.949,6.014 5.899,6.014c2.95,-0 5.787,-2.045 5.9,-6.375c0.114,-2.525 0.114,-5.893 0.114,-9.622c-0,-8.9 -0.227,-19.604 -0.341,-23.934c-0.454,-13.47 -9.644,-20.085 -19.174,-20.085c-5.9,-0 -11.913,2.405 -16.111,7.216c-0.227,0.241 -0.454,0.481 -0.567,0.481c-0.114,0 -0.114,-0.12 -0.114,-0.24l0,-0.361c0,-0.361 0.114,-0.722 0.114,-1.203c-0,-3.849 -2.95,-5.653 -5.787,-5.653c-2.836,0 -6.126,1.804 -6.126,5.412l-0,0.241c0.227,8.058 0.34,14.312 0.34,21.529c0,7.096 -0.113,15.034 -0.454,26.46l0,0.24c0,3.849 2.95,5.894 6.013,5.894c4.539,-0 5.9,-3.608 5.787,-6.134c-0.227,-8.54 -0.341,-14.914 -0.341,-19.845c0,-3.368 0,-6.134 0.114,-8.299c0.34,-8.058 8.623,-14.553 15.544,-14.553c4.765,-0 8.736,3.007 9.19,10.464c0.113,1.924 0.227,6.013 0.227,10.824c-0,7.337 -0.114,16.478 -0.227,21.409l-0,0.12Z" style="fill-opacity:0.02;fill-rule:nonzero;"/><path d="M875.246,74.608c-0.145,-1.817 -0.89,-3.203 -1.936,-4.191c-1.304,-1.232 -3.101,-1.842 -4.866,-1.842c-1.689,0 -3.514,0.562 -4.889,1.67c-1.347,1.085 -2.279,2.68 -2.279,4.784l0,0.27c0.11,3.903 0.194,7.382 0.25,10.752c0.06,3.579 0.09,7.036 0.09,10.748c0,3.982 -0.035,8.23 -0.127,13.212c-0.072,3.885 -0.177,8.217 -0.326,13.217l-0,0.271c-0,2.168 0.81,3.843 2.033,5.008c1.324,1.264 3.152,1.927 5.021,1.927c2.375,0 4.001,-0.865 5.079,-2.055c1.34,-1.481 1.82,-3.51 1.749,-5.156c-0.121,-4.538 -0.209,-8.465 -0.266,-11.887c-0.049,-3.005 -0.074,-5.621 -0.074,-7.922l0.113,-8.255c0.154,-3.653 2.086,-6.95 4.749,-9.379c2.81,-2.563 6.444,-4.176 9.754,-4.176c2.366,-0 4.519,0.824 6.007,2.743c1.198,1.544 1.961,3.761 2.143,6.741c0.056,0.954 0.112,2.443 0.154,4.29c0.043,1.857 0.071,4.075 0.071,6.472c-0,3.378 -0.024,7.139 -0.061,10.694c-0.044,4.158 -0.105,8.036 -0.166,10.691l1.042,1.066c-0,-0 -1.042,-1.03 -1.042,-1.03c-0,-0 1.042,1.15 1.042,1.15l-1.042,-1.042c-0,2.129 0.784,3.813 1.96,5.004c1.32,1.337 3.15,2.051 4.981,2.051c1.912,0 3.779,-0.736 5.102,-2.236c1.059,-1.202 1.781,-2.905 1.839,-5.152c-0,0.019 0.114,-9.65 0.114,-9.65c0,-3.877 -0.043,-8.096 -0.101,-11.983c-0.075,-5.045 -0.175,-9.53 -0.239,-11.978c-0.001,-0.003 -0.001,-0.005 -0.001,-0.008c-0.217,-6.46 -2.374,-11.406 -5.583,-14.881c-3.83,-4.148 -9.176,-6.211 -14.632,-6.211c-3.145,-0 -6.321,0.653 -9.261,1.957c-2.325,1.032 -4.502,2.47 -6.402,4.316Zm24.306,48.771c0,0.575 -0.466,1.042 -1.041,1.042c-0,-0 1.041,-0.713 1.041,-1.15l0,-0c0.061,-2.662 0.123,-6.543 0.166,-10.705c0.037,-3.563 0.061,-7.331 0.061,-10.716c0,-2.415 -0.028,-4.648 -0.071,-6.52c-0.043,-1.879 -0.1,-3.395 -0.158,-4.366c0,-0 0,-0.001 0,-0.002c-0.213,-3.497 -1.17,-6.079 -2.575,-7.891c-1.901,-2.452 -4.631,-3.551 -7.654,-3.551c-3.78,0 -7.95,1.794 -11.158,4.721c-3.069,2.799 -5.249,6.621 -5.427,10.83c0.001,-0.011 -0.114,8.343 -0.114,8.343c-0,2.311 0.025,4.938 0.074,7.956c0.057,3.431 0.146,7.367 0.267,11.917c-0,0.006 -0,0.012 0,0.019c0.053,1.168 -0.258,2.622 -1.212,3.674c-0.745,0.824 -1.891,1.371 -3.534,1.371c-1.331,0 -2.64,-0.452 -3.584,-1.351c-0.851,-0.812 -1.387,-1.991 -1.387,-3.501l-0,-0.225c0.149,-5.002 0.254,-9.336 0.326,-13.224c0.092,-4.997 0.128,-9.257 0.128,-13.251c-0,-3.724 -0.03,-7.192 -0.091,-10.783c-0.056,-3.374 -0.14,-6.856 -0.25,-10.761c0,0 0,-0.226 0,-0.226c0,-1.39 0.613,-2.445 1.503,-3.162c1.006,-0.81 2.346,-1.208 3.582,-1.208c1.243,-0 2.517,0.405 3.435,1.272c0.801,0.757 1.31,1.869 1.31,3.339l-0.113,1.203l-0,0.361c-0,0.336 0.104,0.649 0.246,0.836c0.196,0.256 0.471,0.446 0.909,0.446c0.155,-0 0.347,-0.033 0.553,-0.14c0.187,-0.098 0.491,-0.37 0.772,-0.668c0.009,-0.01 0.018,-0.02 0.027,-0.03c1.959,-2.246 4.335,-3.939 6.91,-5.082c2.672,-1.185 5.558,-1.778 8.416,-1.778c4.882,0 9.674,1.829 13.102,5.541c2.915,3.157 4.833,7.667 5.031,13.535c0.064,2.444 0.164,6.918 0.239,11.95c0.058,3.877 0.101,8.085 0.101,11.952l-0.113,9.595c-0.044,1.664 -0.536,2.939 -1.32,3.829c-0.915,1.038 -2.215,1.531 -3.539,1.531c-1.285,0 -2.572,-0.494 -3.499,-1.432c-0.83,-0.84 -1.359,-2.038 -1.359,-3.54Z" style="fill:#9c9c9c;"/></g><g><path d="M62.518,104.337c0,-11.564 -6.803,-22.257 -19.471,-23.252c-1.29,-0.124 -1.759,-0.373 -1.759,-0.497c-0,-0.249 0.704,-0.497 1.877,-0.746c8.21,-1.243 14.075,-10.445 14.075,-19.895c0,-10.444 -7.272,-21.386 -26.743,-22.754c-1.76,-0.125 -4.223,-0.249 -6.803,-0.249c-9.97,0 -22.99,0.249 -23.342,15.791c-0.235,7.958 -0.352,24.869 -0.352,40.038c0,10.072 0,19.398 0.235,24.62c0.469,15.543 13.958,16.04 25.335,16.04c2.933,0 5.982,-0.124 7.507,-0.249c20.292,-1.243 29.441,-15.542 29.441,-28.847Zm-33.194,-54.461c10.322,-0 14.662,5.471 14.662,11.315c-0,6.59 -5.396,13.553 -13.841,14.05c-2.111,0.125 -5.161,0.125 -7.976,0.125c-7.742,-0 -9.384,-0 -9.384,-2.612c0.117,-7.211 0,-14.299 0.235,-17.283c0.352,-4.725 2.698,-5.72 10.204,-5.72c3.05,0 6.1,0.125 6.1,0.125Zm4.222,70.626c-2.228,0.124 -5.161,0.248 -7.858,0.248c-10.909,0 -12.082,-1.492 -12.668,-6.092c-0.352,-3.358 -0.352,-9.077 -0.352,-24.62c-0,-2.487 1.056,-2.86 11.964,-2.86c2.932,0 5.982,0.124 8.914,0.373c10.792,0.871 15.483,8.082 15.483,15.418c0,8.331 -5.747,16.911 -15.483,17.533Z" style="fill:#dcdcdc;fill-rule:nonzero;"/><path d="M84.218,54.601c5.044,-0 8.211,-4.352 8.211,-8.829c-0,-4.725 -3.988,-8.455 -8.211,-8.455c-3.284,0 -8.211,2.363 -8.211,8.455c0,5.72 3.637,8.829 8.211,8.829Zm6.334,71.869l-0,-0.249c-0.117,-6.838 -0.235,-15.667 -0.235,-24.246c0,-10.445 0.118,-20.268 0.235,-25.366l-0,-0.249c-0,-3.979 -3.167,-5.968 -6.217,-5.968c-3.519,-0 -6.451,2.238 -6.334,6.341c0.118,3.358 0.118,8.331 0.118,13.927c-0,11.315 -0.118,25.49 -0.118,35.81c0,4.228 3.05,6.341 6.217,6.341c3.167,0 6.334,-2.113 6.334,-6.341Z" style="fill:#dcdcdc;fill-rule:nonzero;"/><path d="M116.592,132.438c4.691,0 6.099,-3.73 5.982,-6.341c-0.235,-8.828 -0.352,-15.045 -0.352,-19.895c-0,-3.357 -0,-5.968 0.117,-8.206c0.352,-7.834 8.093,-13.926 15.014,-14.672c4.574,-0.498 6.686,-3.731 6.686,-6.839c-0,-3.109 -2.112,-5.969 -5.748,-5.969c-3.988,0 -10.322,2.114 -15.014,7.585c-0.234,0.373 -0.469,0.498 -0.469,0.498c-0.117,-0 -0.117,-0.125 -0.117,-0.373l-0,-0.498c-0,-0.373 0.117,-0.746 0.117,-1.243c0,-3.979 -3.049,-5.844 -5.982,-5.844c-2.932,-0 -6.334,1.865 -6.334,5.595l0,0.249c0.235,8.331 0.352,14.796 0.352,22.257c0,7.336 -0.117,15.543 -0.469,27.355l-0,0.249c-0,3.979 3.05,6.092 6.217,6.092Z" style="fill:#dcdcdc;fill-rule:nonzero;"/><path d="M212.656,125.227c0,-1.119 -0.234,-2.239 -0.821,-3.358c-3.401,-6.963 -3.519,-7.336 -3.519,-53.466c0,-10.445 0.118,-19.273 0.352,-23.501l0,-0.622c0,-4.352 -3.049,-6.465 -6.099,-6.465c-3.402,-0 -6.099,2.611 -5.982,6.465c0.117,5.223 0.352,17.905 0.352,32.329c-0,0.373 -0.117,0.497 -0.352,0.497c-0.117,0 -0.352,0 -0.469,-0.124c-4.34,-4.103 -9.853,-6.714 -16.422,-6.714c-16.186,-0 -28.502,13.056 -28.502,31.209c-0,18.776 12.316,31.21 28.502,31.21c7.625,0 13.959,-3.481 18.533,-8.704c0.235,-0.248 0.469,-0.497 0.587,-0.497c0.234,-0 0.351,0.249 0.469,0.746c1.642,6.839 3.87,7.833 6.568,7.833c3.402,0 6.803,-2.859 6.803,-6.838Zm-32.725,-4.104c-9.384,0 -16.891,-7.46 -16.891,-19.646c0,-12.309 7.507,-19.894 16.891,-19.894c9.384,-0 16.891,7.585 16.891,19.894c-0,12.186 -7.507,19.646 -16.891,19.646Z" style="fill:#dcdcdc;fill-rule:nonzero;"/><path d="M240.221,76.485c-0.469,-3.731 -3.167,-5.72 -5.865,-5.72c-3.05,0 -6.099,2.363 -6.099,6.963c-0,11.813 0.234,35.189 0.234,53.964c0,10.942 0,20.268 -0.352,24.744l0,0.622c0,4.228 3.05,6.466 6.217,6.466c3.636,-0 6.099,-2.611 5.982,-6.466c-0.117,-5.098 -0.352,-16.91 -0.352,-30.588c0,-0.497 0.117,-0.746 0.352,-0.746c0.117,-0 0.352,0.249 0.587,0.373c4.339,3.979 9.852,6.59 16.304,6.59c16.186,0 28.385,-13.056 28.385,-31.21c0,-18.775 -12.199,-31.209 -28.385,-31.209c-6.452,-0 -11.965,2.486 -16.304,6.465c-0.118,0.125 -0.235,0.125 -0.352,0.125c-0.118,-0 -0.235,-0.125 -0.352,-0.373Zm16.773,44.887c-9.384,0 -16.891,-7.585 -16.891,-19.895c0,-12.185 7.507,-19.646 16.891,-19.646c9.384,0 16.891,7.461 16.891,19.646c-0,12.31 -7.507,19.895 -16.891,19.895Z" style="fill:#dcdcdc;fill-rule:nonzero;"/><path d="M344.027,131.692c3.402,0 5.982,-3.979 5.982,-7.46c0,-1.741 -0.586,-3.357 -1.877,-4.352c-0.938,-0.746 -5.278,-1.119 -6.333,-11.066c-0.118,-0.747 -0.118,-1.741 -0.118,-2.86c0,-3.731 0.352,-8.456 0.587,-10.321c0.117,-1.74 0.234,-3.233 0.234,-4.849c0,-14.299 -7.037,-21.014 -19.94,-21.014c-11.847,0 -22.169,6.59 -22.169,12.559c0,3.233 2.581,5.719 5.63,5.719c1.408,0 3.05,-0.621 4.34,-2.238c2.229,-2.611 6.217,-5.222 11.495,-5.222c7.976,-0 8.328,6.341 8.328,7.834c0,2.611 -0.938,4.103 -2.111,4.227c-1.877,0.124 -11.964,2.487 -20.058,5.471c-7.858,2.86 -11.377,9.201 -11.377,15.543c-0,9.574 7.624,19.521 20.526,19.521c6.921,0 14.311,-2.611 18.299,-7.46c0.234,-0.249 0.469,-0.373 0.703,-0.373c0.118,-0 0.352,0.124 0.47,0.373c1.055,1.865 2.111,3.233 3.166,4.103c1.408,1.244 2.933,1.865 4.223,1.865Zm-14.896,-28.598c1.407,-0 1.642,2.735 1.642,4.6c-0,8.829 -4.106,13.927 -13.607,13.927c-5.982,-0 -9.149,-3.855 -9.149,-7.709c0,-2.985 1.173,-8.207 20.996,-10.818l0.118,-0Z" style="fill:#dcdcdc;fill-rule:nonzero;"/><path d="M373.586,76.485c-0.47,-3.731 -3.167,-5.72 -5.865,-5.72c-3.05,0 -6.1,2.363 -6.1,6.963c0,11.813 0.235,35.189 0.235,53.964c0,10.942 0,20.268 -0.352,24.744l0,0.622c0,4.228 3.05,6.466 6.217,6.466c3.636,-0 6.099,-2.611 5.982,-6.466c-0.117,-5.098 -0.352,-16.91 -0.352,-30.588c-0,-0.497 0.117,-0.746 0.352,-0.746c0.117,-0 0.352,0.249 0.586,0.373c4.34,3.979 9.853,6.59 16.304,6.59c16.187,0 28.386,-13.056 28.386,-31.21c-0,-18.775 -12.199,-31.209 -28.386,-31.209c-6.451,-0 -11.964,2.486 -16.304,6.465c-0.117,0.125 -0.234,0.125 -0.352,0.125c-0.117,-0 -0.234,-0.125 -0.351,-0.373Zm16.773,44.887c-9.384,0 -16.891,-7.585 -16.891,-19.895c0,-12.185 7.507,-19.646 16.891,-19.646c9.383,0 16.89,7.461 16.89,19.646c0,12.31 -7.507,19.895 -16.89,19.895Z" style="fill:#dcdcdc;fill-rule:nonzero;"/><path d="M481.38,122.864c1.29,-1.368 1.759,-2.86 1.759,-4.352c0,-3.481 -3.049,-6.466 -6.216,-6.466c-1.408,0 -2.815,0.622 -3.988,1.99c-3.402,3.854 -7.859,7.585 -15.249,7.585c-8.328,-0 -15.835,-6.217 -15.952,-16.538c0,-1.367 0.235,-2.362 0.938,-2.362c22.756,-0 25.219,-0 28.855,-0.125c7.507,-0.248 11.143,-4.973 11.143,-10.817c0,-9.45 -9.149,-22.009 -25.336,-22.009c-15.131,0 -27.799,13.056 -27.799,32.08c0,18.527 11.965,31.334 28.034,31.334c11.847,0 18.181,-4.103 23.811,-10.32Zm-13.254,-30.464c-3.167,0.125 -8.446,0.125 -13.255,0.125c-10.908,-0 -12.081,-0 -12.081,-1.119c-0,-2.114 5.161,-10.818 14.662,-10.818c10.556,-0 13.019,7.336 13.019,9.077c0,1.492 -0.938,2.611 -2.345,2.735Z" style="fill:#dcdcdc;fill-rule:nonzero;"/><path d="M503.666,132.438c4.692,0 6.099,-3.73 5.982,-6.341c-0.235,-8.828 -0.352,-15.045 -0.352,-19.895c0,-3.357 0,-5.968 0.117,-8.206c0.352,-7.834 8.094,-13.926 15.014,-14.672c4.575,-0.498 6.686,-3.731 6.686,-6.839c0,-3.109 -2.111,-5.969 -5.747,-5.969c-3.988,0 -10.322,2.114 -15.014,7.585c-0.235,0.373 -0.469,0.498 -0.469,0.498c-0.118,-0 -0.118,-0.125 -0.118,-0.373l0,-0.498c0,-0.373 0.118,-0.746 0.118,-1.243c-0,-3.979 -3.05,-5.844 -5.982,-5.844c-2.933,-0 -6.334,1.865 -6.334,5.595l-0,0.249c0.234,8.331 0.352,14.796 0.352,22.257c-0,7.336 -0.118,15.543 -0.47,27.355l0,0.249c0,3.979 3.05,6.092 6.217,6.092Z" style="fill:#dcdcdc;fill-rule:nonzero;"/></g><g id="图层1"><rect x="538.532" y="35.177" width="408.82" height="0.758" style="fill:#d5d5d5;"/><path d="M911.514,189.486l0.005,-189.486l0.624,0l-0.004,189.486l-0.625,0Z" style="fill:#d5d5d5;"/><rect x="538.532" y="160.876" width="408.82" height="0.557" style="fill:#d5d5d5;"/><path d="M565.083,-0l-0.005,189.486l0.62,0l0.005,-189.486l-0.62,-0Z" style="fill:#d5d5d5;"/></g></g></svg>