<?xml version="1.0" encoding="UTF-8" standalone="no"?><!DOCTYPE svg PUBLIC "-//W3C//DTD SVG 1.1//EN" "http://www.w3.org/Graphics/SVG/1.1/DTD/svg11.dtd"><svg width="100%" height="100%" viewBox="0 0 871 960" version="1.1" xmlns="http://www.w3.org/2000/svg" xmlns:xlink="http://www.w3.org/1999/xlink" xml:space="preserve" xmlns:serif="http://www.serif.com/" style="fill-rule:evenodd;clip-rule:evenodd;stroke-linejoin:round;stroke-miterlimit:2;"><path d="M829.649,344.243c-25.811,-25.811 -60.819,-40.312 -97.322,-40.312c-36.503,-0 -71.511,14.501 -97.323,40.312c-105.885,105.886 -274.169,274.17 -380.052,380.052c-25.809,25.81 -40.309,60.815 -40.309,97.315c0,36.5 14.5,71.505 40.309,97.314c0,0 0,0 0,0.001c53.755,53.754 140.908,53.754 194.662,-0c105.884,-105.884 274.156,-274.156 380.036,-380.036c25.811,-25.812 40.312,-60.82 40.312,-97.323c0,-36.503 -14.501,-71.51 -40.312,-97.322c-0,-0 -0.001,-0.001 -0.001,-0.001Z" style="fill:url(#_Linear1);"/><path d="M855.711,503.504c16.572,-32.525 19.545,-70.3 8.265,-105.017c-11.28,-34.716 -35.889,-63.53 -68.414,-80.102c-159.372,-81.204 -436.06,-222.183 -595.427,-303.385c-32.521,-16.57 -70.294,-19.543 -105.007,-8.264c-34.714,11.279 -63.525,35.886 -80.096,68.408c0,0 -0,0 -0,0c-34.513,67.735 -7.581,150.622 60.154,185.135c80.372,40.951 192.98,92.618 300.525,153.125c107.962,60.452 225.75,117.669 197.755,381.669c42.638,-44.912 264.995,-258 272.86,-276.037c-0,-0 9.385,-15.532 9.385,-15.532Z" style="fill:url(#_Linear2);"/><defs><linearGradient id="_Linear1" x1="0" y1="0" x2="1" y2="0" gradientUnits="userSpaceOnUse" gradientTransform="matrix(-491.36,189.585,-189.585,-491.36,709.461,610.573)"><stop offset="0" style="stop-color:#373737;stop-opacity:1"/><stop offset="0.17" style="stop-color:#4a6f90;stop-opacity:1"/><stop offset="0.37" style="stop-color:#5aa1e0;stop-opacity:1"/><stop offset="1" style="stop-color:#61b5ff;stop-opacity:1"/></linearGradient><linearGradient id="_Linear2" x1="0" y1="0" x2="1" y2="0" gradientUnits="userSpaceOnUse" gradientTransform="matrix(814.053,468.257,-468.257,814.053,20.3903,65.5877)"><stop offset="0" style="stop-color:#61b5ff;stop-opacity:1"/><stop offset="1" style="stop-color:#6fc0c0;stop-opacity:1"/></linearGradient></defs></svg>