<?xml version="1.0" encoding="UTF-8" standalone="no"?>
<!DOCTYPE svg PUBLIC "-//W3C//DTD SVG 1.1//EN" "http://www.w3.org/Graphics/SVG/1.1/DTD/svg11.dtd">
<svg width="100%" height="100%" viewBox="0 0 1362 1292" version="1.1" xmlns="http://www.w3.org/2000/svg" xmlns:xlink="http://www.w3.org/1999/xlink" xml:space="preserve" xmlns:serif="http://www.serif.com/" style="fill-rule:evenodd;clip-rule:evenodd;stroke-linejoin:round;stroke-miterlimit:2;">
    <g id="Design" transform="matrix(5.80502,0,0,4.57883,-1123.01,-1081.74)">
        <rect x="193.455" y="236.249" width="234.566" height="282.064" style="fill:none;"/>
        <g transform="matrix(1.79878,0,0,1.79878,-136.937,-141.945)">
            <g transform="matrix(0.172265,0,0,0.218396,193.455,236.249)">
                <ellipse cx="567" cy="537" rx="70" ry="5.339" style="fill:rgb(230,230,230);"/>
            </g>
            <g transform="matrix(0.172265,0,0,0.218396,193.455,236.249)">
                <ellipse cx="226" cy="537" rx="70" ry="5.339" style="fill:rgb(230,230,230);"/>
            </g>
            <g transform="matrix(0.172265,0,0,0.235137,145.518,186.298)">
                <path d="M814.774,650.831L338.774,650.831C334.662,650.826 331.279,647.443 331.274,643.331L331.274,186.331C331.279,182.218 334.662,178.835 338.774,178.831L814.774,178.831C818.887,178.835 822.27,182.218 822.274,186.331L822.274,643.331C822.27,647.443 818.887,650.826 814.774,650.831ZM338.774,181.831C336.307,181.833 334.277,183.863 334.274,186.331L334.274,643.331C334.277,645.798 336.307,647.828 338.774,647.831L814.774,647.831C817.242,647.828 819.272,645.798 819.274,643.331L819.274,186.331C819.272,183.863 817.242,181.833 814.774,181.831L338.774,181.831Z" style="fill:rgb(230,230,230);fill-rule:nonzero;"/>
            </g>
            <g transform="matrix(0.172265,0,0,0.218396,145.518,197.193)">
                <path d="M366.274,218.831C364.629,218.832 363.276,220.185 363.274,221.831L363.274,345.831C363.276,347.476 364.629,348.829 366.274,348.831L490.274,348.831C491.92,348.829 493.273,347.476 493.274,345.831L493.274,221.831C493.273,220.185 491.92,218.832 490.274,218.831L366.274,218.831Z" style="fill:rgb(230,230,230);fill-rule:nonzero;"/>
            </g>
            <g id="b9d15c13-74bb-46fd-a6fd-5a7002be597d" transform="matrix(0.172265,0,0,0.218396,145.518,197.193)">
                <path d="M561.314,308.581C559.349,308.614 557.75,310.24 557.75,312.206C557.75,314.171 559.349,315.797 561.314,315.83L732.192,315.83C732.215,315.83 732.238,315.831 732.261,315.831C734.25,315.831 735.886,314.194 735.886,312.206C735.886,310.236 734.281,308.608 732.311,308.581C732.272,308.58 732.232,308.58 732.192,308.581L561.314,308.581Z" style="fill:rgb(230,230,230);fill-rule:nonzero;"/>
            </g>
            <g id="fb98932a-aea9-43a1-946e-96a095a0002f" transform="matrix(0.172265,0,0,0.218396,145.518,197.193)">
                <path d="M561.314,275.581C559.349,275.614 557.75,277.24 557.75,279.206C557.75,281.171 559.349,282.797 561.314,282.83L610.192,282.83C610.215,282.83 610.238,282.831 610.261,282.831C612.25,282.831 613.886,281.194 613.886,279.206C613.886,277.236 612.281,275.608 610.311,275.581C610.272,275.58 610.232,275.58 610.192,275.581L561.314,275.581Z" style="fill:rgb(230,230,230);fill-rule:nonzero;"/>
            </g>
            <g id="a8382d7c-76a2-4f66-b41d-b5784413a475" transform="matrix(0.172265,0,0,0.218396,145.518,197.193)">
                <path d="M561.314,342.581C559.349,342.614 557.75,344.24 557.75,346.206C557.75,348.171 559.349,349.797 561.314,349.83L732.192,349.83C732.209,349.83 732.226,349.83 732.243,349.83C734.231,349.83 735.868,348.194 735.868,346.205C735.868,344.243 734.274,342.618 732.311,342.581C732.272,342.58 732.232,342.58 732.192,342.581L561.314,342.581Z" style="fill:rgb(230,230,230);fill-rule:nonzero;"/>
            </g>
            <g id="a69b3c31-ebec-4776-89b9-9c88b713759e" transform="matrix(0.172265,0,0,0.218396,145.518,197.193)">
                <path d="M764.583,473.543L529.745,473.543C525.167,473.543 521.457,470.9 521.452,467.643L521.452,416.601C521.457,413.344 525.167,410.701 529.745,410.701L764.583,410.701C769.161,410.701 772.871,413.344 772.876,416.601L772.876,467.642C772.872,470.899 769.161,473.539 764.583,473.543Z" style="fill:rgb(230,230,230);fill-rule:nonzero;"/>
            </g>
            <g id="ac481be8-039b-4a38-bb10-2d9a81406e5c" transform="matrix(0.172265,0,0,0.218396,145.518,197.193)">
                <path d="M605.583,597.543L370.745,597.543C366.167,597.543 362.457,594.9 362.452,591.643L362.452,540.601C362.457,537.344 366.167,534.701 370.745,534.701L605.583,534.701C610.161,534.701 613.871,537.344 613.876,540.601L613.876,591.642C613.872,594.899 610.161,597.539 605.583,597.543Z" style="fill:rgb(230,230,230);fill-rule:nonzero;"/>
            </g>
            <g id="e05581d0-cd6a-412e-af3c-57495fab8d46" transform="matrix(0.172265,0,0,0.218396,145.518,197.193)">
                <path d="M534.741,625.661L299.903,625.661C295.325,625.661 291.615,623.018 291.61,619.761L291.61,568.719C291.615,565.462 295.325,562.819 299.903,562.819L534.741,562.819C539.319,562.819 543.029,565.462 543.034,568.719L543.034,619.76C543.03,623.017 539.319,625.657 534.741,625.661ZM299.903,565.177C297.156,565.177 294.93,566.763 294.927,568.717L294.927,619.758C294.927,621.712 297.156,623.296 299.903,623.298L534.741,623.298C537.488,623.298 539.714,621.712 539.717,619.758L539.717,568.719C539.717,566.765 537.488,565.181 534.741,565.179L299.903,565.177Z" style="fill:rgb(63,61,86);fill-rule:nonzero;"/>
            </g>
            <g transform="matrix(0.172265,0,0,0.218396,193.455,236.249)">
                <circle cx="341" cy="288" r="19" style="fill:rgb(68,158,251);"/>
            </g>
            <g transform="matrix(0.172265,0,0,0.218396,193.455,236.249)">
                <circle cx="56" cy="415" r="19" style="fill:rgb(68,158,251);"/>
            </g>
            <g id="f4993879-8a0d-4ea4-907e-e549be7081a0" transform="matrix(0.172265,0,0,0.218396,145.518,197.193)">
                <path d="M660.314,453.206C658.349,453.239 656.75,454.865 656.75,456.831C656.75,458.796 658.349,460.422 660.314,460.455L796.192,460.455C796.209,460.455 796.226,460.455 796.243,460.455C798.231,460.455 799.868,458.819 799.868,456.83C799.868,454.868 798.274,453.243 796.311,453.206C796.272,453.205 796.232,453.205 796.192,453.206L660.314,453.206Z" style="fill:rgb(63,61,86);fill-rule:nonzero;"/>
            </g>
            <g id="a649136c-96b9-48c7-9686-75389104c34a" transform="matrix(0.172265,0,0,0.218396,145.518,197.193)">
                <path d="M660.314,473.206C658.349,473.239 656.75,474.865 656.75,476.831C656.75,478.796 658.349,480.422 660.314,480.455L796.192,480.455C796.209,480.455 796.226,480.455 796.243,480.455C798.231,480.455 799.868,478.819 799.868,476.83C799.868,474.868 798.274,473.243 796.311,473.206C796.272,473.205 796.232,473.205 796.192,473.206L660.314,473.206Z" style="fill:rgb(63,61,86);fill-rule:nonzero;"/>
            </g>
            <g id="bf4cb793-0df2-4753-9628-c376ea3545d1" transform="matrix(0.172265,0,0,0.218396,145.518,197.193)">
                <path d="M375.314,580.206C373.349,580.239 371.75,581.865 371.75,583.831C371.75,585.796 373.349,587.422 375.314,587.455L511.192,587.455C511.209,587.455 511.226,587.455 511.243,587.455C513.231,587.455 514.868,585.819 514.868,583.83C514.868,581.868 513.274,580.243 511.311,580.206C511.272,580.205 511.232,580.205 511.192,580.206L375.314,580.206Z" style="fill:rgb(63,61,86);fill-rule:nonzero;"/>
            </g>
            <g id="bf2170fd-291c-4664-b596-01f8e04656d6" transform="matrix(0.172265,0,0,0.218396,145.518,197.193)">
                <path d="M375.314,600.206C373.349,600.239 371.75,601.865 371.75,603.831C371.75,605.796 373.349,607.422 375.314,607.455L511.192,607.455C511.209,607.455 511.226,607.455 511.243,607.455C513.231,607.455 514.868,605.819 514.868,603.83C514.868,601.868 513.274,600.243 511.311,600.206C511.272,600.205 511.232,600.205 511.192,600.206L375.314,600.206Z" style="fill:rgb(63,61,86);fill-rule:nonzero;"/>
            </g>
            <g transform="matrix(0.172265,0,0,0.218396,193.455,236.249)">
                <circle cx="568.973" cy="475.931" r="43.067" style="fill:rgb(47,46,65);"/>
            </g>
            <g transform="matrix(0.172265,0,0,0.218396,193.455,236.249)">
                <rect x="575.515" y="509.73" width="13.084" height="23.442" style="fill:rgb(47,46,65);"/>
            </g>
            <g transform="matrix(0.172265,0,0,0.218396,193.455,236.249)">
                <rect x="549.347" y="509.73" width="13.084" height="23.442" style="fill:rgb(47,46,65);"/>
            </g>
            <g transform="matrix(0.172265,0,0,0.218396,193.455,236.249)">
                <ellipse cx="577.696" cy="533.445" rx="10.903" ry="4.089" style="fill:rgb(47,46,65);"/>
            </g>
            <g transform="matrix(0.172265,0,0,0.218396,193.455,236.249)">
                <ellipse cx="551.528" cy="532.899" rx="10.903" ry="4.089" style="fill:rgb(47,46,65);"/>
            </g>
            <g transform="matrix(0.172265,0,0,0.218396,193.455,236.249)">
                <circle cx="567.883" cy="465.027" r="14.719" style="fill:white;"/>
            </g>
            <g transform="matrix(0.172265,0,0,0.218396,193.455,236.249)">
                <circle cx="567.883" cy="465.027" r="4.906" style="fill:rgb(63,61,86);"/>
            </g>
            <g transform="matrix(0.172265,0,0,0.218396,145.518,197.193)">
                <path d="M889.024,614.71C892.502,599.136 881.386,583.399 864.196,579.561C847.006,575.723 830.251,585.236 826.774,600.81C823.296,616.384 834.689,622.127 851.879,625.966C869.069,629.804 885.547,630.284 889.024,614.71Z" style="fill:rgb(230,230,230);fill-rule:nonzero;"/>
            </g>
            <g transform="matrix(0.172265,0,0,0.218396,145.518,197.193)">
                <path d="M388.584,368.79C388.595,375.393 387.079,381.91 384.154,387.83C383.824,388.51 383.474,389.17 383.104,389.83L307.934,389.83C307.564,389.17 307.214,388.51 306.884,387.83C303.962,381.905 302.442,375.386 302.442,368.779C302.442,345.151 321.885,325.708 345.513,325.708C369.141,325.708 388.584,345.151 388.584,368.779C388.584,368.783 388.584,368.787 388.584,368.79Z" style="fill:rgb(47,46,65);fill-rule:nonzero;"/>
            </g>
            <g transform="matrix(0.172265,0,0,0.218396,193.455,236.249)">
                <circle cx="68.336" cy="179.052" r="14.719" style="fill:white;"/>
            </g>
            <g transform="matrix(0.172265,0,0,0.218396,193.455,236.249)">
                <circle cx="68.336" cy="179.052" r="4.906" style="fill:rgb(63,61,86);"/>
            </g>
            <g transform="matrix(0.172265,0,0,0.218396,145.518,197.193)">
                <path d="M303.744,328.735C300.266,313.161 311.382,297.424 328.572,293.586C345.762,289.747 362.516,299.261 365.994,314.835C369.471,330.408 358.079,336.152 340.889,339.991C323.699,343.829 307.221,344.308 303.744,328.735Z" style="fill:rgb(68,158,251);fill-rule:nonzero;"/>
            </g>
            <g transform="matrix(0.172265,0,0,0.218396,145.518,197.193)">
                <path d="M407.274,255.831L283.274,255.831C280.532,255.832 278.275,258.088 278.274,260.831L278.274,384.831C278.275,387.573 280.532,389.83 283.274,389.831L407.274,389.831C410.017,389.83 412.273,387.573 412.274,384.831L412.274,260.831C412.273,258.088 410.017,255.832 407.274,255.831ZM410.274,384.831C410.27,386.474 408.918,387.826 407.274,387.831L283.274,387.831C281.631,387.826 280.279,386.474 280.274,384.831L280.274,260.831C280.279,259.187 281.631,257.835 283.274,257.831L407.274,257.831C408.918,257.835 410.27,259.187 410.274,260.831L410.274,384.831Z" style="fill:rgb(63,61,86);fill-rule:nonzero;"/>
            </g>
            <g transform="matrix(0.0615034,-0.204003,0.160911,0.0779738,104.879,394.132)">
                <ellipse cx="537.065" cy="622.239" rx="21.534" ry="6.76" style="fill:rgb(47,46,65);"/>
            </g>
            <g transform="matrix(0.0275937,-0.215576,0.17004,0.0349833,106.121,424.482)">
                <circle cx="497.258" cy="654.761" r="43.067" style="fill:rgb(47,46,65);"/>
            </g>
            <g transform="matrix(0.172265,0,0,0.218396,193.455,236.249)">
                <rect x="199.358" y="509.73" width="13.084" height="23.442" style="fill:rgb(47,46,65);"/>
            </g>
            <g transform="matrix(0.172265,0,0,0.218396,193.455,236.249)">
                <rect x="225.526" y="509.73" width="13.084" height="23.442" style="fill:rgb(47,46,65);"/>
            </g>
            <g transform="matrix(0.172265,0,0,0.218396,193.455,236.249)">
                <ellipse cx="210.261" cy="533.445" rx="10.903" ry="4.089" style="fill:rgb(47,46,65);"/>
            </g>
            <g transform="matrix(0.172265,0,0,0.218396,193.455,236.249)">
                <ellipse cx="236.429" cy="532.899" rx="10.903" ry="4.089" style="fill:rgb(47,46,65);"/>
            </g>
            <g transform="matrix(0.172265,0,0,0.218396,145.518,197.193)">
                <path d="M455.481,614.71C452.004,599.136 463.12,583.399 480.31,579.561C497.5,575.722 514.254,585.236 517.732,600.81C521.209,616.384 509.817,622.127 492.627,625.966C475.437,629.804 458.959,630.284 455.481,614.71Z" style="fill:rgb(68,158,251);fill-rule:nonzero;"/>
            </g>
            <g transform="matrix(0.0738204,-0.197327,0.155646,0.0935893,90.8941,364.968)">
                <ellipse cx="448.75" cy="634.778" rx="6.76" ry="21.534" style="fill:rgb(47,46,65);"/>
            </g>
            <g transform="matrix(0.172265,0,0,0.218396,193.455,236.249)">
                <circle cx="581.968" cy="344.643" r="42.012" style="fill:rgb(47,46,65);"/>
            </g>
            <g transform="matrix(0.172263,-0.00101521,0.000800771,0.218394,145.065,198.081)">
                <rect x="866.83" y="556.385" width="12.763" height="22.867" style="fill:rgb(47,46,65);"/>
            </g>
            <g transform="matrix(0.172263,-0.00101521,0.000800771,0.218394,145.065,198.055)">
                <rect x="841.304" y="556.504" width="12.763" height="22.867" style="fill:rgb(47,46,65);"/>
            </g>
            <g transform="matrix(0.148784,-0.110076,0.0868249,0.188627,114.849,307.536)">
                <ellipse cx="845.091" cy="581.776" rx="10.636" ry="3.989" style="fill:rgb(47,46,65);"/>
            </g>
            <g transform="matrix(0.148784,-0.110076,0.0868249,0.188627,115.446,310.284)">
                <ellipse cx="870.086" cy="581.66" rx="10.636" ry="3.989" style="fill:rgb(47,46,65);"/>
            </g>
            <g transform="matrix(0.172265,0,0,0.218396,193.455,236.249)">
                <circle cx="580.855" cy="334.012" r="14.359" style="fill:white;"/>
            </g>
            <g transform="matrix(0.172265,0,0,0.218396,193.455,236.249)">
                <circle cx="575.937" cy="327.919" r="4.786" style="fill:rgb(63,61,86);"/>
            </g>
            <g transform="matrix(0.172265,0,0,0.218396,145.518,197.193)">
                <path d="M900.814,484.214C904.136,469.006 893.22,453.705 876.434,450.039C859.648,446.373 843.348,455.729 840.026,470.937C836.704,486.145 847.844,491.696 864.63,495.362C881.416,499.029 897.492,499.422 900.814,484.214Z" style="fill:rgb(68,158,251);fill-rule:nonzero;"/>
            </g>
            <g transform="matrix(0.0670457,-0.201176,0.158682,0.0850003,151.725,428.419)">
                <ellipse cx="816.367" cy="502.203" rx="6.594" ry="21.006" style="fill:rgb(47,46,65);"/>
            </g>
            <g transform="matrix(0.0670457,-0.201176,0.158682,0.0850003,155.231,450.332)">
                <ellipse cx="902.204" cy="537.022" rx="6.594" ry="21.006" style="fill:rgb(47,46,65);"/>
            </g>
            <g transform="matrix(0.172265,0,0,0.218396,145.518,197.193)">
                <path d="M868.733,541.781C868.733,541.802 868.733,541.822 868.733,541.843C868.733,547.094 864.412,551.415 859.16,551.415C853.927,551.415 849.613,547.123 849.588,541.889L849.588,541.87C849.563,536.583 853.844,535.468 859.131,535.444C864.417,535.419 868.708,536.494 868.733,541.781Z" style="fill:white;fill-rule:nonzero;"/>
            </g>
            <g id="acccf4df-3a09-4c7b-a8c8-af469fe66e6d" transform="matrix(0.172265,0,0,0.218396,145.518,197.193)">
                <path d="M825.678,498.496L590.84,498.496C586.262,498.496 582.552,495.853 582.547,492.596L582.547,441.554C582.552,438.297 586.262,435.654 590.84,435.654L825.678,435.654C830.256,435.654 833.966,438.297 833.971,441.554L833.971,492.595C833.967,495.852 830.256,498.492 825.678,498.496ZM590.84,438.012C588.093,438.012 585.867,439.598 585.864,441.552L585.864,492.593C585.864,494.547 588.093,496.131 590.84,496.133L825.678,496.133C828.425,496.133 830.651,494.547 830.654,492.593L830.654,441.554C830.654,439.6 828.425,438.016 825.678,438.014L590.84,438.012Z" style="fill:rgb(63,61,86);fill-rule:nonzero;"/>
            </g>
        </g>
    </g>
</svg>
