<?xml version="1.0" encoding="UTF-8" standalone="no"?>
<!DOCTYPE svg PUBLIC "-//W3C//DTD SVG 1.1//EN" "http://www.w3.org/Graphics/SVG/1.1/DTD/svg11.dtd">
<svg width="100%" height="100%" viewBox="0 0 1362 1292" version="1.1" xmlns="http://www.w3.org/2000/svg" xmlns:xlink="http://www.w3.org/1999/xlink" xml:space="preserve" xmlns:serif="http://www.serif.com/" style="fill-rule:evenodd;clip-rule:evenodd;stroke-linejoin:round;stroke-miterlimit:2;">
    <g transform="matrix(1,0,0,1,-1461,0)">
        <g id="基础组件" transform="matrix(1,0,0,1,-0.658509,0)">
            <rect x="1461.66" y="0" width="1361.66" height="1291.52" style="fill:none;"/>
            <g transform="matrix(1.79878,0,0,1.93666,1063.22,-197.282)">
                <path d="M814.774,650.831L338.774,650.831C334.662,650.826 331.279,647.443 331.274,643.331L331.274,186.331C331.279,182.218 334.662,178.835 338.774,178.831L814.774,178.831C818.887,178.835 822.27,182.218 822.274,186.331L822.274,643.331C822.27,647.443 818.887,650.826 814.774,650.831ZM338.774,181.831C336.307,181.833 334.277,183.863 334.274,186.331L334.274,643.331C334.277,645.798 336.307,647.828 338.774,647.831L814.774,647.831C817.242,647.828 819.272,645.798 819.274,643.331L819.274,186.331C819.272,183.863 817.242,181.833 814.774,181.831L338.774,181.831Z" style="fill:rgb(230,230,230);fill-rule:nonzero;"/>
            </g>
            <g id="元素" transform="matrix(0.0672607,0,0,0.065186,1771.32,241.18)">
                <g transform="matrix(0.931042,0.474389,-0.416851,0.818115,-74.3332,-755.634)">
                    <path d="M2105.31,815.364C2105.31,763 2087.06,712.318 2054.7,674.813C2022.35,637.307 1978.63,616.156 1933.45,616.156C1704.95,616.156 1303.36,616.156 1074.31,616.156C978.097,616.156 901.373,705.093 901.373,816.617C901.373,816.637 901.373,816.657 901.373,816.677C901.373,869.041 919.62,919.723 951.975,957.228C984.33,994.734 1028.05,1015.88 1073.22,1015.88C1301.73,1015.88 1703.32,1015.88 1932.37,1015.88C2028.58,1015.88 2105.31,926.948 2105.31,815.424C2105.31,815.404 2105.31,815.384 2105.31,815.364Z" style="fill:rgb(235,235,235);"/>
                </g>
                <g transform="matrix(0.636457,-0.636457,0.64926,0.64926,-357.859,1507.48)">
                    <path d="M2105.31,816.351C2105.31,704.787 2014.89,616.156 1901.08,616.156C1679.12,616.156 1326.57,616.156 1104.89,616.156C1051.51,616.156 999.725,637.378 961.373,674.973C923.021,712.569 901.373,763.327 901.373,815.656C901.373,815.667 901.373,815.678 901.373,815.69C901.373,927.254 991.787,1015.88 1105.6,1015.88C1327.56,1015.88 1680.11,1015.88 1901.79,1015.88C1955.17,1015.88 2006.96,994.663 2045.31,957.068C2083.66,919.472 2105.31,868.714 2105.31,816.385C2105.31,816.374 2105.31,816.363 2105.31,816.351Z" style="fill:rgb(165,165,165);fill-opacity:0.4;"/>
                </g>
            </g>
            <g transform="matrix(2.32663,0,0,2.25486,-2705.11,-353.369)">
                <text x="2027.39px" y="296.518px" style="font-family:'BMJUAOTF', 'BM Jua', serif;font-size:24px;fill-opacity:0.18;">+</text>
            </g>
            <g transform="matrix(1.22663,0,0,1.18879,-491.793,-8.91816)">
                <text x="2137.72px" y="270.486px" style="font-family:'BMJUAOTF', 'BM Jua', serif;font-size:45.522px;fill-opacity:0.18;">V<tspan x="2166.45px " y="270.486px ">u</tspan>e</text>
            </g>
            <g transform="matrix(0.865757,0,0,1.1027,129.793,-18.0883)">
                <path d="M1930.31,404.06L2062.76,700.274L1797.86,700.274L1930.31,404.06Z" style="fill:rgb(225,225,225);fill-opacity:0.71;"/>
            </g>
            <g transform="matrix(1.01767,0,0,1.29619,-280.526,-225.322)">
                <path d="M1930.31,404.06L2062.76,700.274L1797.86,700.274L1930.31,404.06Z" style="fill:rgb(68,158,251);"/>
            </g>
            <g transform="matrix(1.39711,0,0,1.39711,-999.344,-335.002)">
                <circle cx="2341.3" cy="672.445" r="81.659" style="fill:rgb(225,225,225);fill-opacity:0.71;"/>
            </g>
            <g transform="matrix(1.39711,0,0,1.39711,-885.258,-220.915)">
                <circle cx="2341.3" cy="672.445" r="81.659" style="fill:rgb(68,158,251);"/>
            </g>
            <g transform="matrix(1,0,0,1,393.069,140.497)">
                <rect x="1869.59" y="885.211" width="437.974" height="149.789" style="fill:rgb(225,225,225);fill-opacity:0.71;"/>
            </g>
            <g transform="matrix(1,0,0,1,201.395,65.6024)">
                <rect x="1869.59" y="885.211" width="437.974" height="149.789" style="fill:rgb(68,158,251);"/>
            </g>
            <g id="b9d15c13-74bb-46fd-a6fd-5a7002be597d" transform="matrix(1.79878,0,0,1.79878,755.856,317.606)">
                <path d="M561.314,308.581C559.349,308.614 557.75,310.24 557.75,312.206C557.75,314.171 559.349,315.797 561.314,315.83L732.192,315.83C732.215,315.83 732.238,315.831 732.261,315.831C734.25,315.831 735.886,314.194 735.886,312.206C735.886,310.236 734.281,308.608 732.311,308.581C732.272,308.58 732.232,308.58 732.192,308.581L561.314,308.581Z" style="fill:rgb(230,230,230);fill-rule:nonzero;"/>
            </g>
            <g id="fb98932a-aea9-43a1-946e-96a095a0002f" transform="matrix(1.79878,0,0,1.79878,755.856,317.606)">
                <path d="M561.314,275.581C559.349,275.614 557.75,277.24 557.75,279.206C557.75,281.171 559.349,282.797 561.314,282.83L610.192,282.83C610.215,282.83 610.238,282.831 610.261,282.831C612.25,282.831 613.886,281.194 613.886,279.206C613.886,277.236 612.281,275.608 610.311,275.581C610.272,275.58 610.232,275.58 610.192,275.581L561.314,275.581Z" style="fill:rgb(230,230,230);fill-rule:nonzero;"/>
            </g>
            <g id="a8382d7c-76a2-4f66-b41d-b5784413a475" transform="matrix(1.79878,0,0,1.79878,755.856,317.606)">
                <path d="M561.314,342.581C559.349,342.614 557.75,344.24 557.75,346.206C557.75,348.171 559.349,349.797 561.314,349.83L732.192,349.83C732.209,349.83 732.226,349.83 732.243,349.83C734.231,349.83 735.868,348.194 735.868,346.205C735.868,344.243 734.274,342.618 732.311,342.581C732.272,342.58 732.232,342.58 732.192,342.581L561.314,342.581Z" style="fill:rgb(230,230,230);fill-rule:nonzero;"/>
            </g>
        </g>
    </g>
</svg>
