<?xml version="1.0" encoding="UTF-8" standalone="no"?><!DOCTYPE svg PUBLIC "-//W3C//DTD SVG 1.1//EN" "http://www.w3.org/Graphics/SVG/1.1/DTD/svg11.dtd"><svg width="100%" height="100%" viewBox="0 0 221 30" version="1.1" xmlns="http://www.w3.org/2000/svg" xmlns:xlink="http://www.w3.org/1999/xlink" xml:space="preserve" xmlns:serif="http://www.serif.com/" style="fill-rule:evenodd;clip-rule:evenodd;stroke-linejoin:round;stroke-miterlimit:2;"><g id="原始字体-曲线"><g><path d="M155.684,10.904c-0,-5.866 -3.49,-10.406 -9.838,-10.829c-0.412,-0.028 -1.237,-0.056 -2.089,-0.056c-3.407,-0 -6.128,0.112 -6.347,3.976c-0.083,1.523 -0.165,4.794 -0.165,7.896c-0,2.369 0.055,4.653 0.137,6.035c0.275,3.948 4.177,3.976 6.375,3.976c2.858,0 11.927,-0.028 11.927,-10.998Zm-10.113,-7.812c4.204,0 6.87,3.272 6.87,7.812c0,7.981 -5.798,7.981 -8.684,7.981c-2.28,-0 -3.132,-0.226 -3.27,-1.523c-0.11,-1.072 -0.165,-3.158 -0.165,-5.386c0,-3.046 0.083,-6.289 0.165,-7.474c0.083,-1.41 1.567,-1.438 2.886,-1.438c1.016,0 2.198,0.028 2.198,0.028Z" style="fill:#f8f8f8;fill-rule:nonzero;"/><path d="M170.55,19.505c0.303,-0.31 0.412,-0.648 0.412,-0.987c0,-0.789 -0.714,-1.466 -1.456,-1.466c-0.33,-0 -0.659,0.141 -0.934,0.451c-0.797,0.874 -1.841,1.72 -3.573,1.72c-1.951,0 -3.709,-1.41 -3.737,-3.75c0,-0.311 0.055,-0.536 0.22,-0.536c5.331,-0 5.908,-0 6.76,-0.028c1.759,-0.057 2.611,-1.129 2.611,-2.454c-0,-2.143 -2.144,-4.991 -5.936,-4.991c-3.545,-0 -6.513,2.961 -6.513,7.275c0,4.202 2.803,7.107 6.568,7.107c2.775,-0 4.259,-0.931 5.578,-2.341Zm-3.105,-6.909c-0.742,0.028 -1.979,0.028 -3.105,0.028c-2.556,0 -2.831,0 -2.831,-0.254c0,-0.479 1.21,-2.453 3.435,-2.453c2.474,-0 3.051,1.664 3.051,2.059c-0,0.338 -0.22,0.592 -0.55,0.62Z" style="fill:#f8f8f8;fill-rule:nonzero;"/><path d="M182.422,17.672c-0,-1.382 -0.797,-2.82 -2.693,-3.863c-0.825,-0.452 -2.061,-1.016 -2.776,-1.382c-0.632,-0.31 -0.907,-0.818 -0.907,-1.241c0,-0.62 0.522,-1.156 1.457,-1.156c0.961,-0 1.456,0.395 1.731,0.677c0.357,0.394 0.769,0.564 1.127,0.564c0.742,-0 1.374,-0.649 1.374,-1.41c-0,-1.1 -1.704,-2.369 -4.232,-2.369c-2.638,-0 -4.177,1.861 -4.177,3.779c-0,1.381 0.769,2.763 2.473,3.525c3.215,1.494 3.82,2.03 3.82,2.933c-0,0.648 -0.577,1.438 -2.034,1.438c-1.127,-0 -1.841,-0.48 -2.226,-0.987c-0.302,-0.423 -0.714,-0.592 -1.099,-0.592c-0.714,-0 -1.401,0.592 -1.401,1.353c-0,0.931 1.401,2.877 4.754,2.877c2.748,-0 4.809,-1.946 4.809,-4.146Z" style="fill:#f8f8f8;fill-rule:nonzero;"/><path d="M187.285,4.023c1.182,0 1.924,-0.987 1.924,-2.002c0,-1.072 -0.934,-1.918 -1.924,-1.918c-0.769,0 -1.923,0.536 -1.923,1.918c-0,1.297 0.852,2.002 1.923,2.002Zm1.484,16.3l0,-0.056c-0.027,-1.551 -0.055,-3.554 -0.055,-5.499c0,-2.369 0.028,-4.597 0.055,-5.753l0,-0.057c0,-0.902 -0.742,-1.353 -1.456,-1.353c-0.824,-0 -1.511,0.507 -1.484,1.438c0.028,0.761 0.028,1.889 0.028,3.158c-0,2.567 -0.028,5.781 -0.028,8.122c0,0.959 0.715,1.438 1.456,1.438c0.742,0 1.484,-0.479 1.484,-1.438Z" style="fill:#f8f8f8;fill-rule:nonzero;"/><path d="M198.69,17.165c3.38,-0.141 5.193,-2.031 5.193,-4.738c0,-0.846 -0.055,-1.128 -0.247,-1.664c-0.027,-0.085 -0.027,-0.141 -0.027,-0.169c-0,-0.113 0.054,-0.113 0.109,-0.141c0.165,-0.085 0.275,-0.169 0.578,-0.169c0.082,-0 0.219,-0 0.357,0.028c0.11,0.028 0.192,0.028 0.302,0.028c0.769,0 1.154,-0.649 1.154,-1.297c0,-1.382 -1.154,-1.467 -1.951,-1.467c-0.577,0 -1.044,0.17 -1.841,0.593c-0.137,0.084 -0.275,0.141 -0.44,0.141c-0.11,-0 -0.274,-0.029 -0.467,-0.141c-0.934,-0.452 -2.006,-0.677 -3.05,-0.677l-0.055,-0c-2.693,-0 -5.441,1.664 -5.441,4.935c-0,1.184 0.577,2.651 1.649,3.497c0.22,0.169 0.302,0.254 0.302,0.338c-0,0.085 -0.165,0.141 -0.357,0.254c-1.072,0.592 -1.567,1.466 -1.567,2.51c0,0.733 0.44,1.664 1.512,2.002c0.192,0.056 0.247,0.113 0.247,0.169c0,0.028 -0.055,0.085 -0.137,0.113c-1.319,0.564 -2.419,1.608 -2.419,3.159c0,1.833 1.759,4.427 6.733,4.427c3.682,0 7.282,-1.579 7.282,-5.358c0,-2.313 -1.841,-4.371 -5.963,-4.371c-4.149,-0 -4.479,-0.113 -4.479,-0.621c-0,-1.128 1.868,-1.353 3.023,-1.381Zm2.638,-4.795c-0,1.636 -1.374,2.454 -2.996,2.454c-2.445,-0 -2.775,-1.692 -2.775,-2.425c-0,-1.439 1.264,-2.482 2.885,-2.482c2.061,-0 2.886,1.184 2.886,2.453Zm1.896,11.337c-0,2.566 -3.573,2.679 -4.342,2.679c-3.957,0 -4.04,-1.946 -4.04,-2.199c0,-0.339 0.385,-2.623 4.013,-2.623c2.088,-0 4.369,-0 4.369,2.143Z" style="fill:#f8f8f8;fill-rule:nonzero;"/><path d="M217.623,20.267c0,0.902 0.715,1.41 1.429,1.41c0.715,-0 1.402,-0.48 1.429,-1.495c0.028,-0.592 0.028,-1.382 0.028,-2.256c-0,-2.087 -0.055,-4.597 -0.083,-5.612c-0.11,-3.158 -2.336,-4.709 -4.644,-4.709c-1.429,-0 -2.885,0.564 -3.902,1.692c-0.055,0.056 -0.11,0.112 -0.137,0.112c-0.028,0 -0.028,-0.028 -0.028,-0.056l0,-0.085c0,-0.084 0.028,-0.169 0.028,-0.282c-0,-0.902 -0.715,-1.325 -1.402,-1.325c-0.687,-0 -1.484,0.423 -1.484,1.269l0,0.056c0.055,1.89 0.083,3.356 0.083,5.048c-0,1.664 -0.028,3.525 -0.11,6.204l-0,0.057c-0,0.902 0.714,1.382 1.456,1.382c1.099,-0 1.429,-0.846 1.402,-1.439c-0.055,-2.002 -0.083,-3.496 -0.083,-4.653c0,-0.789 0,-1.438 0.028,-1.946c0.082,-1.889 2.088,-3.412 3.764,-3.412c1.155,0 2.116,0.705 2.226,2.454c0.028,0.451 0.055,1.41 0.055,2.538c0,1.72 -0.027,3.863 -0.055,5.019l0,0.029Z" style="fill:#f8f8f8;fill-rule:nonzero;"/></g><g><path d="M15.142,15.802c0,-2.712 -1.648,-5.219 -4.716,-5.452c-0.312,-0.029 -0.426,-0.088 -0.426,-0.117c0,-0.058 0.171,-0.116 0.455,-0.175c1.988,-0.291 3.409,-2.449 3.409,-4.664c-0,-2.449 -1.762,-5.015 -6.478,-5.336c-0.426,-0.029 -1.022,-0.058 -1.647,-0.058c-2.415,0 -5.569,0.058 -5.654,3.703c-0.057,1.866 -0.085,5.831 -0.085,9.387c-0,2.362 -0,4.549 0.057,5.773c0.113,3.644 3.381,3.761 6.136,3.761c0.71,0 1.449,-0.029 1.818,-0.058c4.915,-0.292 7.131,-3.645 7.131,-6.764Zm-8.04,-12.77c2.5,0 3.552,1.283 3.552,2.653c-0,1.545 -1.307,3.178 -3.353,3.295c-0.511,0.029 -1.25,0.029 -1.932,0.029c-1.875,-0 -2.272,-0 -2.272,-0.612c0.028,-1.691 -0,-3.353 0.056,-4.053c0.086,-1.108 0.654,-1.341 2.472,-1.341c0.739,-0 1.477,0.029 1.477,0.029Zm1.023,16.56c-0.54,0.029 -1.25,0.058 -1.903,0.058c-2.642,0 -2.927,-0.35 -3.069,-1.428c-0.085,-0.787 -0.085,-2.129 -0.085,-5.773c0,-0.583 0.256,-0.67 2.898,-0.67c0.71,-0 1.449,0.029 2.159,0.087c2.614,0.204 3.75,1.895 3.75,3.615c0,1.954 -1.392,3.965 -3.75,4.111Z" style="fill:#f8f8f8;fill-rule:nonzero;"/><path d="M20.398,4.14c1.222,-0 1.989,-1.02 1.989,-2.07c-0,-1.108 -0.966,-1.983 -1.989,-1.983c-0.795,0 -1.989,0.554 -1.989,1.983c0,1.341 0.881,2.07 1.989,2.07Zm1.534,16.851l0,-0.058c-0.028,-1.603 -0.057,-3.673 -0.057,-5.685c0,-2.449 0.029,-4.752 0.057,-5.948l0,-0.058c0,-0.933 -0.767,-1.399 -1.506,-1.399c-0.852,-0 -1.562,0.524 -1.534,1.487c0.029,0.787 0.029,1.953 0.029,3.265c-0,2.653 -0.029,5.977 -0.029,8.396c0,0.992 0.739,1.487 1.506,1.487c0.767,0 1.534,-0.495 1.534,-1.487Z" style="fill:#f8f8f8;fill-rule:nonzero;"/><path d="M28.239,22.391c1.136,-0 1.477,-0.875 1.449,-1.487c-0.057,-2.07 -0.085,-3.528 -0.085,-4.665c-0,-0.787 -0,-1.399 0.028,-1.924c0.085,-1.837 1.96,-3.265 3.636,-3.44c1.108,-0.117 1.62,-0.875 1.62,-1.604c-0,-0.729 -0.512,-1.399 -1.392,-1.399c-0.966,-0 -2.5,0.495 -3.637,1.778c-0.056,0.088 -0.113,0.117 -0.113,0.117c-0.029,-0 -0.029,-0.029 -0.029,-0.088l0,-0.116c0,-0.088 0.029,-0.175 0.029,-0.292c-0,-0.933 -0.739,-1.37 -1.449,-1.37c-0.71,-0 -1.534,0.437 -1.534,1.312l-0,0.058c0.057,1.954 0.085,3.47 0.085,5.219c-0,1.72 -0.028,3.644 -0.114,6.414l0,0.058c0,0.933 0.739,1.429 1.506,1.429Z" style="fill:#f8f8f8;fill-rule:nonzero;"/><path d="M51.506,20.7c0,-0.263 -0.056,-0.525 -0.199,-0.787c-0.823,-1.633 -0.852,-1.72 -0.852,-12.537c0,-2.449 0.029,-4.519 0.085,-5.51l0,-0.146c0,-1.02 -0.738,-1.516 -1.477,-1.516c-0.824,0 -1.477,0.612 -1.449,1.516c0.029,1.225 0.085,4.198 0.085,7.58c0,0.088 -0.028,0.117 -0.085,0.117c-0.028,-0 -0.085,-0 -0.113,-0.029c-1.052,-0.962 -2.387,-1.575 -3.978,-1.575c-3.92,0 -6.903,3.062 -6.903,7.318c-0,4.403 2.983,7.318 6.903,7.318c1.847,0 3.381,-0.816 4.489,-2.041c0.057,-0.058 0.114,-0.116 0.142,-0.116c0.057,-0 0.085,0.058 0.114,0.175c0.397,1.603 0.937,1.836 1.591,1.836c0.823,0 1.647,-0.67 1.647,-1.603Zm-7.926,-0.962c-2.273,-0 -4.091,-1.75 -4.091,-4.607c0,-2.886 1.818,-4.664 4.091,-4.664c2.273,-0 4.091,1.778 4.091,4.664c0,2.857 -1.818,4.607 -4.091,4.607Z" style="fill:#f8f8f8;fill-rule:nonzero;"/><path d="M58.183,9.271c-0.114,-0.874 -0.768,-1.341 -1.421,-1.341c-0.739,0 -1.477,0.554 -1.477,1.633c-0,2.769 0.057,8.251 0.057,12.653c-0,2.566 -0,4.752 -0.086,5.802l0,0.145c0,0.992 0.739,1.516 1.506,1.516c0.881,0 1.477,-0.612 1.449,-1.516c-0.028,-1.195 -0.085,-3.965 -0.085,-7.172c-0,-0.116 0.028,-0.175 0.085,-0.175c0.028,0 0.085,0.059 0.142,0.088c1.051,0.933 2.386,1.545 3.949,1.545c3.92,0 6.875,-3.061 6.875,-7.318c-0,-4.402 -2.955,-7.318 -6.875,-7.318c-1.563,0 -2.898,0.584 -3.949,1.517c-0.028,0.029 -0.057,0.029 -0.085,0.029c-0.029,-0 -0.057,-0.029 -0.085,-0.088Zm4.062,10.525c-2.273,0 -4.091,-1.778 -4.091,-4.665c0,-2.857 1.818,-4.606 4.091,-4.606c2.273,-0 4.091,1.749 4.091,4.606c0,2.887 -1.818,4.665 -4.091,4.665Z" style="fill:#f8f8f8;fill-rule:nonzero;"/><path d="M83.325,22.216c0.824,-0 1.449,-0.933 1.449,-1.749c-0,-0.409 -0.142,-0.788 -0.455,-1.021c-0.227,-0.175 -1.278,-0.262 -1.534,-2.595c-0.028,-0.175 -0.028,-0.408 -0.028,-0.67c-0,-0.875 0.085,-1.983 0.142,-2.42c0.028,-0.408 0.057,-0.758 0.057,-1.137c-0,-3.353 -1.705,-4.927 -4.83,-4.927c-2.869,-0 -5.369,1.545 -5.369,2.944c-0,0.758 0.625,1.342 1.363,1.342c0.341,-0 0.739,-0.146 1.051,-0.525c0.54,-0.612 1.506,-1.225 2.785,-1.225c1.931,0 2.017,1.487 2.017,1.837c-0,0.612 -0.228,0.962 -0.512,0.991c-0.454,0.029 -2.898,0.583 -4.858,1.283c-1.903,0.671 -2.756,2.158 -2.756,3.644c0,2.245 1.847,4.578 4.972,4.578c1.676,-0 3.466,-0.613 4.432,-1.75c0.057,-0.058 0.114,-0.087 0.17,-0.087c0.029,0 0.086,0.029 0.114,0.087c0.256,0.438 0.511,0.758 0.767,0.963c0.341,0.291 0.71,0.437 1.023,0.437Zm-3.608,-6.706c0.341,0 0.398,0.642 0.398,1.079c-0,2.07 -0.995,3.265 -3.296,3.265c-1.449,0 -2.216,-0.903 -2.216,-1.807c0,-0.7 0.284,-1.924 5.085,-2.537l0.029,0Z" style="fill:#f8f8f8;fill-rule:nonzero;"/><path d="M90.484,9.271c-0.114,-0.874 -0.767,-1.341 -1.42,-1.341c-0.739,0 -1.478,0.554 -1.478,1.633c0,2.769 0.057,8.251 0.057,12.653c0,2.566 0,4.752 -0.085,5.802l-0,0.145c-0,0.992 0.739,1.516 1.506,1.516c0.88,0 1.477,-0.612 1.448,-1.516c-0.028,-1.195 -0.085,-3.965 -0.085,-7.172c0,-0.116 0.029,-0.175 0.085,-0.175c0.029,0 0.086,0.059 0.143,0.088c1.051,0.933 2.386,1.545 3.948,1.545c3.921,0 6.876,-3.061 6.876,-7.318c-0,-4.402 -2.955,-7.318 -6.876,-7.318c-1.562,0 -2.897,0.584 -3.948,1.517c-0.029,0.029 -0.057,0.029 -0.086,0.029c-0.028,-0 -0.057,-0.029 -0.085,-0.088Zm4.063,10.525c-2.273,0 -4.091,-1.778 -4.091,-4.665c-0,-2.857 1.818,-4.606 4.091,-4.606c2.272,-0 4.091,1.749 4.091,4.606c-0,2.887 -1.819,4.665 -4.091,4.665Z" style="fill:#f8f8f8;fill-rule:nonzero;"/><path d="M116.592,20.146c0.313,-0.321 0.426,-0.671 0.426,-1.021c0,-0.816 -0.738,-1.516 -1.505,-1.516c-0.341,0 -0.682,0.146 -0.966,0.467c-0.824,0.904 -1.904,1.778 -3.693,1.778c-2.017,0 -3.836,-1.457 -3.864,-3.877c-0,-0.321 0.057,-0.554 0.227,-0.554c5.512,-0 6.108,-0 6.989,-0.029c1.818,-0.059 2.699,-1.167 2.699,-2.537c-0,-2.216 -2.216,-5.16 -6.137,-5.16c-3.664,-0 -6.733,3.061 -6.733,7.522c0,4.344 2.898,7.347 6.79,7.347c2.87,-0 4.404,-0.962 5.767,-2.42Zm-3.21,-7.143c-0.767,0.029 -2.045,0.029 -3.21,0.029c-2.642,0 -2.926,0 -2.926,-0.262c-0,-0.496 1.25,-2.537 3.551,-2.537c2.557,0 3.153,1.72 3.153,2.129c0,0.349 -0.227,0.612 -0.568,0.641Z" style="fill:#f8f8f8;fill-rule:nonzero;"/><path d="M121.99,22.391c1.137,-0 1.477,-0.875 1.449,-1.487c-0.057,-2.07 -0.085,-3.528 -0.085,-4.665c-0,-0.787 -0,-1.399 0.028,-1.924c0.085,-1.837 1.96,-3.265 3.637,-3.44c1.108,-0.117 1.619,-0.875 1.619,-1.604c-0,-0.729 -0.511,-1.399 -1.392,-1.399c-0.966,-0 -2.5,0.495 -3.637,1.778c-0.056,0.088 -0.113,0.117 -0.113,0.117c-0.029,-0 -0.029,-0.029 -0.029,-0.088l0,-0.116c0,-0.088 0.029,-0.175 0.029,-0.292c-0,-0.933 -0.739,-1.37 -1.449,-1.37c-0.71,-0 -1.534,0.437 -1.534,1.312l-0,0.058c0.057,1.954 0.085,3.47 0.085,5.219c0,1.72 -0.028,3.644 -0.114,6.414l0,0.058c0,0.933 0.739,1.429 1.506,1.429Z" style="fill:#f8f8f8;fill-rule:nonzero;"/></g></g></svg>