<?xml version="1.0" encoding="UTF-8" standalone="no"?><!DOCTYPE svg PUBLIC "-//W3C//DTD SVG 1.1//EN" "http://www.w3.org/Graphics/SVG/1.1/DTD/svg11.dtd"><svg width="100%" height="100%" viewBox="0 0 219 31" version="1.1" xmlns="http://www.w3.org/2000/svg" xmlns:xlink="http://www.w3.org/1999/xlink" xml:space="preserve" xmlns:serif="http://www.serif.com/" style="fill-rule:evenodd;clip-rule:evenodd;stroke-linejoin:round;stroke-miterlimit:2;"><g id="原始字体-曲线"><g><path d="M154.267,11.161c-0,-6.004 -3.458,-10.651 -9.749,-11.084c-0.408,-0.029 -1.225,-0.058 -2.069,-0.058c-3.377,-0 -6.072,0.115 -6.29,4.07c-0.082,1.559 -0.163,4.907 -0.163,8.082c-0,2.425 0.054,4.763 0.136,6.178c0.272,4.041 4.139,4.07 6.317,4.07c2.832,-0 11.818,-0.029 11.818,-11.258Zm-10.021,-7.996c4.166,0 6.808,3.349 6.808,7.996c-0,8.169 -5.746,8.169 -8.605,8.169c-2.26,-0 -3.104,-0.231 -3.24,-1.559c-0.109,-1.097 -0.164,-3.233 -0.164,-5.513c0,-3.118 0.082,-6.437 0.164,-7.649c0.081,-1.444 1.552,-1.473 2.859,-1.473c1.007,0 2.178,0.029 2.178,0.029Z" style="fill:#554f4f;fill-rule:nonzero;"/><path d="M168.998,19.965c0.3,-0.317 0.408,-0.664 0.408,-1.01c0,-0.808 -0.708,-1.501 -1.443,-1.501c-0.327,-0 -0.653,0.144 -0.926,0.462c-0.789,0.894 -1.824,1.76 -3.539,1.76c-1.934,0 -3.676,-1.443 -3.704,-3.839c0,-0.317 0.055,-0.548 0.218,-0.548c5.283,-0 5.855,-0 6.699,-0.029c1.742,-0.058 2.587,-1.155 2.587,-2.511c-0,-2.194 -2.124,-5.11 -5.882,-5.11c-3.513,0 -6.454,3.031 -6.454,7.448c0,4.301 2.778,7.274 6.508,7.274c2.751,-0 4.221,-0.953 5.528,-2.396Zm-3.077,-7.072c-0.735,0.029 -1.961,0.029 -3.077,0.029c-2.532,-0 -2.805,-0 -2.805,-0.26c0,-0.491 1.199,-2.511 3.404,-2.511c2.451,-0 3.023,1.703 3.023,2.107c-0,0.346 -0.218,0.606 -0.545,0.635Z" style="fill:#554f4f;fill-rule:nonzero;"/><path d="M180.761,18.089c0,-1.415 -0.789,-2.887 -2.668,-3.955c-0.817,-0.462 -2.043,-1.039 -2.75,-1.414c-0.627,-0.318 -0.899,-0.837 -0.899,-1.27c-0,-0.635 0.517,-1.184 1.443,-1.184c0.953,0 1.443,0.404 1.716,0.693c0.354,0.404 0.762,0.577 1.116,0.577c0.735,0 1.361,-0.664 1.361,-1.443c0,-1.126 -1.688,-2.425 -4.193,-2.425c-2.614,0 -4.139,1.905 -4.139,3.868c0,1.415 0.763,2.829 2.451,3.608c3.186,1.53 3.785,2.079 3.785,3.003c-0,0.663 -0.572,1.472 -2.015,1.472c-1.117,-0 -1.825,-0.491 -2.206,-1.011c-0.299,-0.433 -0.708,-0.606 -1.089,-0.606c-0.708,0 -1.389,0.606 -1.389,1.386c0,0.952 1.389,2.944 4.711,2.944c2.723,0 4.765,-1.992 4.765,-4.243Z" style="fill:#554f4f;fill-rule:nonzero;"/><path d="M185.581,4.118c1.171,-0 1.906,-1.01 1.906,-2.05c-0,-1.096 -0.926,-1.962 -1.906,-1.962c-0.763,-0 -1.906,0.548 -1.906,1.962c-0,1.328 0.844,2.05 1.906,2.05Zm1.47,16.684l0,-0.058c-0.027,-1.587 -0.054,-3.637 -0.054,-5.628c-0,-2.425 0.027,-4.705 0.054,-5.889l0,-0.058c0,-0.923 -0.735,-1.385 -1.443,-1.385c-0.817,-0 -1.498,0.519 -1.47,1.472c0.027,0.779 0.027,1.934 0.027,3.233c-0,2.627 -0.027,5.917 -0.027,8.313c-0,0.982 0.708,1.472 1.443,1.472c0.735,0 1.47,-0.49 1.47,-1.472Z" style="fill:#554f4f;fill-rule:nonzero;"/><path d="M196.881,17.569c3.35,-0.144 5.147,-2.078 5.147,-4.849c-0,-0.866 -0.055,-1.155 -0.245,-1.703c-0.028,-0.087 -0.028,-0.145 -0.028,-0.173c0,-0.116 0.055,-0.116 0.109,-0.145c0.164,-0.086 0.273,-0.173 0.572,-0.173c0.082,0 0.218,0 0.354,0.029c0.109,0.029 0.191,0.029 0.3,0.029c0.762,-0 1.143,-0.664 1.143,-1.328c0,-1.414 -1.143,-1.501 -1.933,-1.501c-0.572,-0 -1.035,0.173 -1.824,0.606c-0.137,0.087 -0.273,0.144 -0.436,0.144c-0.109,0 -0.272,-0.028 -0.463,-0.144c-0.926,-0.462 -1.988,-0.693 -3.023,-0.693l-0.054,0c-2.668,0 -5.391,1.703 -5.391,5.052c-0,1.212 0.571,2.713 1.633,3.579c0.218,0.173 0.3,0.26 0.3,0.347c-0,0.086 -0.164,0.144 -0.354,0.259c-1.062,0.606 -1.552,1.501 -1.552,2.569c-0,0.751 0.435,1.703 1.497,2.05c0.191,0.058 0.245,0.115 0.245,0.173c0,0.029 -0.054,0.087 -0.136,0.115c-1.307,0.578 -2.396,1.646 -2.396,3.233c0,1.877 1.743,4.532 6.671,4.532c3.649,0 7.216,-1.616 7.216,-5.484c0,-2.367 -1.824,-4.474 -5.909,-4.474c-4.111,-0 -4.438,-0.116 -4.438,-0.635c-0,-1.155 1.852,-1.386 2.995,-1.415Zm2.614,-4.907c0,1.674 -1.361,2.511 -2.968,2.511c-2.423,0 -2.75,-1.732 -2.75,-2.482c0,-1.472 1.253,-2.54 2.859,-2.54c2.042,-0 2.859,1.212 2.859,2.511Zm1.879,11.604c0,2.627 -3.54,2.742 -4.302,2.742c-3.921,0 -4.003,-1.991 -4.003,-2.251c0,-0.347 0.381,-2.685 3.976,-2.685c2.069,0 4.329,0 4.329,2.194Z" style="fill:#554f4f;fill-rule:nonzero;"/><path d="M215.643,20.744c-0,0.924 0.708,1.444 1.415,1.444c0.708,-0 1.389,-0.491 1.416,-1.53c0.028,-0.606 0.028,-1.415 0.028,-2.309c-0,-2.136 -0.055,-4.706 -0.082,-5.745c-0.109,-3.233 -2.315,-4.82 -4.602,-4.82c-1.416,-0 -2.859,0.577 -3.866,1.732c-0.055,0.057 -0.109,0.115 -0.137,0.115c-0.027,0 -0.027,-0.029 -0.027,-0.058l0,-0.086c0,-0.087 0.027,-0.173 0.027,-0.289c0,-0.923 -0.708,-1.356 -1.388,-1.356c-0.681,-0 -1.471,0.433 -1.471,1.298l0,0.058c0.055,1.934 0.082,3.435 0.082,5.167c-0,1.703 -0.027,3.608 -0.109,6.351l0,0.057c0,0.924 0.708,1.415 1.443,1.415c1.089,-0 1.416,-0.866 1.389,-1.472c-0.055,-2.05 -0.082,-3.58 -0.082,-4.763c0,-0.809 0,-1.472 0.027,-1.992c0.082,-1.934 2.07,-3.493 3.731,-3.493c1.144,0 2.097,0.722 2.206,2.512c0.027,0.461 0.054,1.443 0.054,2.597c0,1.761 -0.027,3.955 -0.054,5.139l-0,0.028Z" style="fill:#554f4f;fill-rule:nonzero;"/></g><g><path d="M15.004,16.174c0,-2.775 -1.632,-5.341 -4.673,-5.58c-0.309,-0.03 -0.422,-0.09 -0.422,-0.119c0,-0.06 0.169,-0.12 0.451,-0.18c1.97,-0.298 3.378,-2.506 3.378,-4.774c-0,-2.507 -1.746,-5.133 -6.419,-5.461c-0.422,-0.03 -1.013,-0.06 -1.633,-0.06c-2.392,0 -5.517,0.06 -5.602,3.79c-0.056,1.91 -0.084,5.968 -0.084,9.609c0,2.417 0,4.655 0.056,5.909c0.113,3.73 3.35,3.849 6.081,3.849c0.704,0 1.436,-0.029 1.802,-0.059c4.87,-0.299 7.065,-3.731 7.065,-6.924Zm-7.966,-13.07c2.477,-0 3.519,1.313 3.519,2.715c-0,1.582 -1.295,3.253 -3.322,3.372c-0.507,0.03 -1.239,0.03 -1.914,0.03c-1.858,0 -2.253,0 -2.253,-0.627c0.029,-1.73 0,-3.431 0.057,-4.148c0.084,-1.134 0.647,-1.372 2.449,-1.372c0.732,-0 1.464,0.03 1.464,0.03Zm1.013,16.95c-0.535,0.03 -1.238,0.059 -1.886,0.059c-2.618,0 -2.899,-0.358 -3.04,-1.462c-0.085,-0.806 -0.085,-2.178 -0.085,-5.908c0,-0.597 0.254,-0.687 2.872,-0.687c0.703,0 1.435,0.03 2.139,0.09c2.59,0.209 3.716,1.939 3.716,3.7c0,1.999 -1.379,4.059 -3.716,4.208Z" style="fill:#4f4f4f;fill-rule:nonzero;"/><path d="M20.212,4.238c1.211,-0 1.971,-1.045 1.971,-2.119c-0,-1.134 -0.957,-2.029 -1.971,-2.029c-0.788,-0 -1.97,0.567 -1.97,2.029c-0,1.373 0.872,2.119 1.97,2.119Zm1.52,17.248l0,-0.059c-0.028,-1.642 -0.056,-3.761 -0.056,-5.82c0,-2.506 0.028,-4.864 0.056,-6.087l0,-0.06c0,-0.955 -0.76,-1.433 -1.492,-1.433c-0.844,0 -1.548,0.538 -1.52,1.522c0.028,0.806 0.028,2 0.028,3.343c0,2.715 -0.028,6.117 -0.028,8.594c0,1.015 0.732,1.522 1.492,1.522c0.76,0 1.52,-0.507 1.52,-1.522Z" style="fill:#4f4f4f;fill-rule:nonzero;"/><path d="M27.982,22.919c1.126,-0 1.464,-0.896 1.436,-1.522c-0.057,-2.119 -0.085,-3.611 -0.085,-4.775c0,-0.806 0,-1.432 0.028,-1.97c0.085,-1.88 1.943,-3.342 3.604,-3.521c1.098,-0.119 1.604,-0.895 1.604,-1.641c0,-0.746 -0.506,-1.433 -1.379,-1.433c-0.957,0 -2.477,0.508 -3.603,1.821c-0.057,0.089 -0.113,0.119 -0.113,0.119c-0.028,0 -0.028,-0.03 -0.028,-0.089l-0,-0.12c-0,-0.089 0.028,-0.179 0.028,-0.298c-0,-0.955 -0.732,-1.403 -1.436,-1.403c-0.704,0 -1.52,0.448 -1.52,1.343l0,0.06c0.056,1.999 0.085,3.551 0.085,5.341c-0,1.761 -0.029,3.731 -0.113,6.566l-0,0.059c-0,0.955 0.732,1.463 1.492,1.463Z" style="fill:#4f4f4f;fill-rule:nonzero;"/><path d="M51.038,21.188c-0,-0.269 -0.057,-0.537 -0.198,-0.806c-0.816,-1.671 -0.844,-1.761 -0.844,-12.832c-0,-2.507 0.028,-4.625 0.084,-5.64l0,-0.149c0,-1.045 -0.732,-1.552 -1.463,-1.552c-0.817,-0 -1.464,0.627 -1.436,1.552c0.028,1.253 0.084,4.297 0.084,7.759c0,0.089 -0.028,0.119 -0.084,0.119c-0.028,-0 -0.085,-0 -0.113,-0.03c-1.041,-0.985 -2.364,-1.611 -3.941,-1.611c-3.885,-0 -6.841,3.133 -6.841,7.49c0,4.506 2.956,7.49 6.841,7.49c1.83,0 3.35,-0.835 4.448,-2.089c0.056,-0.059 0.113,-0.119 0.141,-0.119c0.056,0 0.084,0.06 0.112,0.179c0.394,1.641 0.929,1.88 1.577,1.88c0.816,0 1.633,-0.686 1.633,-1.641Zm-7.855,-0.985c-2.252,0 -4.053,-1.791 -4.053,-4.715c-0,-2.954 1.801,-4.775 4.053,-4.775c2.253,0 4.054,1.821 4.054,4.775c0,2.924 -1.801,4.715 -4.054,4.715Z" style="fill:#4f4f4f;fill-rule:nonzero;"/><path d="M57.653,9.49c-0.113,-0.896 -0.76,-1.373 -1.408,-1.373c-0.731,0 -1.463,0.567 -1.463,1.671c-0,2.835 0.056,8.445 0.056,12.952c-0,2.626 -0,4.864 -0.085,5.938l0,0.149c0,1.015 0.732,1.552 1.492,1.552c0.873,0 1.464,-0.627 1.436,-1.552c-0.028,-1.223 -0.084,-4.058 -0.084,-7.341c-0,-0.119 0.028,-0.179 0.084,-0.179c0.028,0 0.085,0.06 0.141,0.09c1.041,0.955 2.365,1.581 3.913,1.581c3.885,0 6.812,-3.133 6.812,-7.49c0,-4.506 -2.927,-7.49 -6.812,-7.49c-1.548,-0 -2.872,0.596 -3.913,1.551c-0.028,0.03 -0.056,0.03 -0.085,0.03c-0.028,0 -0.056,-0.03 -0.084,-0.089Zm4.026,10.773c-2.253,-0 -4.054,-1.821 -4.054,-4.775c-0,-2.925 1.801,-4.715 4.054,-4.715c2.252,-0 4.053,1.79 4.053,4.715c0,2.954 -1.801,4.775 -4.053,4.775Z" style="fill:#4f4f4f;fill-rule:nonzero;"/><path d="M82.567,22.74c0.816,-0 1.435,-0.955 1.435,-1.791c0,-0.418 -0.141,-0.806 -0.45,-1.044c-0.225,-0.179 -1.267,-0.269 -1.52,-2.656c-0.029,-0.179 -0.029,-0.418 -0.029,-0.687c0,-0.895 0.085,-2.029 0.141,-2.477c0.028,-0.417 0.057,-0.775 0.057,-1.163c-0,-3.432 -1.69,-5.044 -4.786,-5.044c-2.843,0 -5.321,1.582 -5.321,3.014c0,0.776 0.62,1.373 1.352,1.373c0.337,0 0.732,-0.149 1.041,-0.537c0.535,-0.627 1.492,-1.253 2.759,-1.253c1.914,-0 1.999,1.521 1.999,1.88c-0,0.626 -0.226,0.984 -0.507,1.014c-0.45,0.03 -2.871,0.597 -4.814,1.313c-1.886,0.687 -2.73,2.209 -2.73,3.73c-0,2.298 1.829,4.686 4.926,4.686c1.661,-0 3.434,-0.627 4.391,-1.791c0.057,-0.06 0.113,-0.089 0.169,-0.089c0.029,-0 0.085,0.029 0.113,0.089c0.253,0.448 0.507,0.776 0.76,0.985c0.338,0.298 0.704,0.448 1.014,0.448Zm-3.576,-6.864c0.338,-0 0.394,0.656 0.394,1.104c0,2.119 -0.985,3.342 -3.265,3.342c-1.436,0 -2.196,-0.925 -2.196,-1.85c0,-0.716 0.282,-1.969 5.039,-2.596l0.028,-0Z" style="fill:#4f4f4f;fill-rule:nonzero;"/><path d="M89.661,9.49c-0.113,-0.896 -0.761,-1.373 -1.408,-1.373c-0.732,0 -1.464,0.567 -1.464,1.671c0,2.835 0.056,8.445 0.056,12.952c0,2.626 0,4.864 -0.084,5.938l-0,0.149c-0,1.015 0.732,1.552 1.492,1.552c0.873,0 1.464,-0.627 1.436,-1.552c-0.028,-1.223 -0.085,-4.058 -0.085,-7.341c0,-0.119 0.028,-0.179 0.085,-0.179c0.028,0 0.084,0.06 0.14,0.09c1.042,0.955 2.365,1.581 3.913,1.581c3.885,0 6.813,-3.133 6.813,-7.49c-0,-4.506 -2.928,-7.49 -6.813,-7.49c-1.548,-0 -2.871,0.596 -3.913,1.551c-0.028,0.03 -0.056,0.03 -0.084,0.03c-0.028,0 -0.056,-0.03 -0.084,-0.089Zm4.025,10.773c-2.252,-0 -4.054,-1.821 -4.054,-4.775c0,-2.925 1.802,-4.715 4.054,-4.715c2.252,-0 4.054,1.79 4.054,4.715c-0,2.954 -1.802,4.775 -4.054,4.775Z" style="fill:#4f4f4f;fill-rule:nonzero;"/><path d="M115.531,20.621c0.31,-0.328 0.422,-0.687 0.422,-1.045c0,-0.835 -0.731,-1.551 -1.492,-1.551c-0.337,-0 -0.675,0.149 -0.957,0.477c-0.816,0.925 -1.886,1.82 -3.659,1.82c-1.999,0 -3.801,-1.492 -3.829,-3.969c0,-0.328 0.056,-0.567 0.225,-0.567c5.462,0 6.053,0 6.926,-0.029c1.801,-0.06 2.674,-1.194 2.674,-2.597c-0,-2.268 -2.196,-5.282 -6.081,-5.282c-3.631,0 -6.672,3.134 -6.672,7.7c0,4.446 2.872,7.52 6.729,7.52c2.843,-0 4.363,-0.985 5.714,-2.477Zm-3.181,-7.311c-0.76,0.029 -2.027,0.029 -3.181,0.029c-2.618,0 -2.899,0 -2.899,-0.268c-0,-0.508 1.238,-2.596 3.518,-2.596c2.534,-0 3.125,1.76 3.125,2.178c0,0.358 -0.225,0.627 -0.563,0.657Z" style="fill:#4f4f4f;fill-rule:nonzero;"/><path d="M120.88,22.919c1.126,-0 1.464,-0.896 1.436,-1.522c-0.057,-2.119 -0.085,-3.611 -0.085,-4.775c0,-0.806 0,-1.432 0.028,-1.97c0.085,-1.88 1.943,-3.342 3.604,-3.521c1.097,-0.119 1.604,-0.895 1.604,-1.641c0,-0.746 -0.507,-1.433 -1.379,-1.433c-0.957,0 -2.478,0.508 -3.604,1.821c-0.056,0.089 -0.112,0.119 -0.112,0.119c-0.028,0 -0.028,-0.03 -0.028,-0.089l-0,-0.12c-0,-0.089 0.028,-0.179 0.028,-0.298c-0,-0.955 -0.732,-1.403 -1.436,-1.403c-0.704,0 -1.52,0.448 -1.52,1.343l0,0.06c0.056,1.999 0.084,3.551 0.084,5.341c0,1.761 -0.028,3.731 -0.112,6.566l-0,0.059c-0,0.955 0.732,1.463 1.492,1.463Z" style="fill:#4f4f4f;fill-rule:nonzero;"/></g></g></svg>