<?xml version="1.0" encoding="UTF-8" standalone="no"?><!DOCTYPE svg PUBLIC "-//W3C//DTD SVG 1.1//EN" "http://www.w3.org/Graphics/SVG/1.1/DTD/svg11.dtd"><svg width="100%" height="100%" viewBox="0 0 145 160" version="1.1" xmlns="http://www.w3.org/2000/svg" xmlns:xlink="http://www.w3.org/1999/xlink" xml:space="preserve" xmlns:serif="http://www.serif.com/" style="fill-rule:evenodd;clip-rule:evenodd;stroke-linejoin:round;stroke-miterlimit:2;"><path d="M137.846,57.196c-4.288,-4.289 -10.105,-6.698 -16.17,-6.698c-6.065,0 -11.881,2.409 -16.17,6.698c-17.593,17.593 -45.553,45.553 -63.146,63.146c-4.288,4.288 -6.697,10.104 -6.697,16.168c-0,6.065 2.409,11.881 6.697,16.169c0,0 0,0 0,0c8.932,8.932 23.412,8.932 32.343,0c17.593,-17.592 45.551,-45.551 63.143,-63.143c4.289,-4.288 6.698,-10.105 6.698,-16.17c0,-6.065 -2.409,-11.881 -6.698,-16.17c0,0 0,0 0,-0Z" style="fill:url(#_Linear1);"/><path d="M142.176,83.657c2.754,-5.404 3.248,-11.68 1.374,-17.448c-1.875,-5.768 -5.963,-10.556 -11.367,-13.309c-26.48,-13.492 -72.452,-36.916 -98.931,-50.408c-5.403,-2.753 -11.679,-3.247 -17.447,-1.373c-5.767,1.874 -10.554,5.963 -13.307,11.366c-0,0 -0,0 -0,0c-5.735,11.254 -1.26,25.026 9.994,30.76c13.354,6.804 32.064,15.389 49.932,25.442c17.938,10.044 37.509,19.551 32.857,63.414c7.085,-7.462 44.029,-42.866 45.336,-45.863c0,-0 1.559,-2.581 1.559,-2.581Z" style="fill:url(#_Linear2);"/><defs><linearGradient id="_Linear1" x1="0" y1="0" x2="1" y2="0" gradientUnits="userSpaceOnUse" gradientTransform="matrix(-78.9194,64.6786,-64.6786,-78.9194,122.505,85.6524)"><stop offset="0" style="stop-color:#373737;stop-opacity:1"/><stop offset="0.19" style="stop-color:#3d628a;stop-opacity:0.96"/><stop offset="0.39" style="stop-color:#428cd9;stop-opacity:0.92"/><stop offset="1" style="stop-color:#449efb;stop-opacity:0.9"/></linearGradient><linearGradient id="_Linear2" x1="0" y1="0" x2="1" y2="0" gradientUnits="userSpaceOnUse" gradientTransform="matrix(228.606,129.789,-129.789,228.606,4.56267,12.6978)"><stop offset="0" style="stop-color:#449efb;stop-opacity:1"/><stop offset="1" style="stop-color:#81d17b;stop-opacity:1"/></linearGradient></defs></svg>